<mxfile host="Electron" modified="2024-05-14T03:48:29.448Z" agent="Mozilla/5.0 (Windows NT 10.0; Win64; x64) AppleWebKit/537.36 (KHTML, like Gecko) draw.io/24.2.5 Chrome/120.0.6099.109 Electron/28.1.0 Safari/537.36" etag="SI2_IWYGA7269rQj4QdY" version="24.2.5" type="device">
  <diagram name="第1頁" id="35Uv-e-9lRvTRcjUk7GW">
    <mxGraphModel dx="1434" dy="844" grid="0" gridSize="10" guides="1" tooltips="1" connect="1" arrows="1" fold="1" page="1" pageScale="1" pageWidth="827" pageHeight="1169" math="0" shadow="0">
      <root>
        <mxCell id="0" />
        <mxCell id="1" parent="0" />
        <mxCell id="BafFSDpOOTgSXeoZPbgn-26" style="edgeStyle=orthogonalEdgeStyle;rounded=0;orthogonalLoop=1;jettySize=auto;html=1;" edge="1" parent="1" source="BafFSDpOOTgSXeoZPbgn-1" target="BafFSDpOOTgSXeoZPbgn-3">
          <mxGeometry relative="1" as="geometry" />
        </mxCell>
        <mxCell id="BafFSDpOOTgSXeoZPbgn-27" style="edgeStyle=orthogonalEdgeStyle;rounded=0;orthogonalLoop=1;jettySize=auto;html=1;" edge="1" parent="1" source="BafFSDpOOTgSXeoZPbgn-1" target="BafFSDpOOTgSXeoZPbgn-2">
          <mxGeometry relative="1" as="geometry" />
        </mxCell>
        <mxCell id="BafFSDpOOTgSXeoZPbgn-1" value="題目: 由左右左的順序，從第一層到最後一層，交替替換node出現的順序" style="rounded=1;whiteSpace=wrap;html=1;" vertex="1" parent="1">
          <mxGeometry x="101" y="33" width="626" height="60" as="geometry" />
        </mxCell>
        <mxCell id="BafFSDpOOTgSXeoZPbgn-29" style="edgeStyle=orthogonalEdgeStyle;rounded=0;orthogonalLoop=1;jettySize=auto;html=1;" edge="1" parent="1" source="BafFSDpOOTgSXeoZPbgn-2" target="BafFSDpOOTgSXeoZPbgn-5">
          <mxGeometry relative="1" as="geometry" />
        </mxCell>
        <UserObject label="Traversal" link="https://www.notion.so/PreOrder-InOrder-PostOrder-336536ba757441a0931b6a06b8e7ba20" id="BafFSDpOOTgSXeoZPbgn-2">
          <mxCell style="rounded=1;whiteSpace=wrap;html=1;" vertex="1" parent="1">
            <mxGeometry x="522" y="142" width="120" height="60" as="geometry" />
          </mxCell>
        </UserObject>
        <mxCell id="BafFSDpOOTgSXeoZPbgn-28" style="edgeStyle=orthogonalEdgeStyle;rounded=0;orthogonalLoop=1;jettySize=auto;html=1;" edge="1" parent="1" source="BafFSDpOOTgSXeoZPbgn-3" target="BafFSDpOOTgSXeoZPbgn-5">
          <mxGeometry relative="1" as="geometry" />
        </mxCell>
        <UserObject label="Queue" link="https://www.notion.so/Queue-BFS-5c364d9000704877ae42a2daf3fe5e2c" id="BafFSDpOOTgSXeoZPbgn-3">
          <mxCell style="rounded=1;whiteSpace=wrap;html=1;" vertex="1" parent="1">
            <mxGeometry x="194" y="142" width="120" height="60" as="geometry" />
          </mxCell>
        </UserObject>
        <mxCell id="BafFSDpOOTgSXeoZPbgn-30" style="edgeStyle=orthogonalEdgeStyle;rounded=0;orthogonalLoop=1;jettySize=auto;html=1;" edge="1" parent="1" source="BafFSDpOOTgSXeoZPbgn-5" target="BafFSDpOOTgSXeoZPbgn-7">
          <mxGeometry relative="1" as="geometry" />
        </mxCell>
        <mxCell id="BafFSDpOOTgSXeoZPbgn-31" style="edgeStyle=orthogonalEdgeStyle;rounded=0;orthogonalLoop=1;jettySize=auto;html=1;" edge="1" parent="1" source="BafFSDpOOTgSXeoZPbgn-5" target="BafFSDpOOTgSXeoZPbgn-13">
          <mxGeometry relative="1" as="geometry" />
        </mxCell>
        <mxCell id="BafFSDpOOTgSXeoZPbgn-5" value="Implementation" style="rounded=1;whiteSpace=wrap;html=1;" vertex="1" parent="1">
          <mxGeometry x="354" y="228" width="120" height="60" as="geometry" />
        </mxCell>
        <mxCell id="BafFSDpOOTgSXeoZPbgn-7" value="Python" style="rounded=1;whiteSpace=wrap;html=1;" vertex="1" parent="1">
          <mxGeometry x="101" y="310" width="120" height="60" as="geometry" />
        </mxCell>
        <mxCell id="BafFSDpOOTgSXeoZPbgn-11" value="" style="group" vertex="1" connectable="0" parent="1">
          <mxGeometry x="18" y="382" width="160" height="155" as="geometry" />
        </mxCell>
        <mxCell id="BafFSDpOOTgSXeoZPbgn-6" value="" style="shape=image;verticalLabelPosition=bottom;labelBackgroundColor=default;verticalAlign=top;aspect=fixed;imageAspect=0;image=data:image/png,iVBORw0KGgoAAAANSUhEUgAAAXwAAAEvCAYAAABG/XqTAAAAAXNSR0IArs4c6QAAAARnQU1BAACxjwv8YQUAAAAJcEhZcwAADsMAAA7DAcdvqGQAADrySURBVHhe7d0LfFTlnTfwH/d7IECQQJBLSJCIKBcFQgWsFmg1ypa6bd1IL9j2VUo/RbpvqduKuFuLuxX60aKvF7YtprYupcVStxC1gspF5SK3CIEgl0CAEAJJuF98z++Z84Qzw8xkhkwwcH5fP+PMnDnnzMkw+T3P+T/PTBocO3bsU4iIyFWvoXstIiJXOQW+iIhPKPBFRHxCgS8i4hMKfBERn1Dgi4j4hAJfRMQnFPgiIj6hwBcR8QkFvoiITyjwRUR8QoEvIuITCnwREZ9Q4IuI+IQCX0TEJ+rk+/CLi4vx5z//2Vx4Oy0tzSwfMmQIvvzlL5trERG5vBIa+Az3adOmYdWqVea+DXpe22XE+3l5edWPi4hI3UtYSef999/HqFGjTLAPHToUv//977F06VJzYbhv377d3OZjbBhyc3PNNlefIuR9LxuD7p6BpRXuIhGReiAhgc8A/5d/+Rdz+wc/+IEJeFu2WbBgAZ5++mlz2/bsuQ63+fGPf2yua5aPGRkZyAi5DLrtnzHpqUUoOuWuJiIiESWkpMPeOnv27NWH1ufZ6yf27r3YEDDw2eNnIxAdA38S8m4ajdz+ndxlp3Bw3VLkbyxFUt+H8Ou/TMGwRu5Dl0HF8rl47Dfz0fafF2P6aHehiEg9VusePssytowTz2Ds+PHjzTbcNubSTtY9mP6z6e7lCcz589t4beow4ONn8d+/j+VMIXFKP16GRcuK3HsiIvVfrQOfM3Fo5syZ5joedhu7j/g1Q9Z3cjHGubW0qCCwSEREwkpID58uZcaN3aZWg7eNGPuh3Jr/9Hz3vle4x4ow935n2f1zUXSuGPlPTcI92YFxguwx38GMv3vOHgrnYoKzfOyTK83dvEmB9TIyZjh7Jndf1ffJs/9TBZj/0wm47Rauk417/jUPBWYMogLr5j2CCbcNMvsbdNuE4Of1Kl2JvJ9+B2PdY+RYxsMvrUTpOfdxEZEwah34HHRlaaYmkQZnY9k2quKD4J7TWrUJ3K+VCix9fBLmFHbC3VNn4Ykf34velUuR94MHMHO5u0rnUfj27FmY/tUsc3fU/5mFWc79WbPvRmBJNMXI+94kLMJIPPTodDz0+RQUL5yB+386Hytf+j4e+H0pBnznMcya8RAGNnVC3fu8VrnTYOVOwOzlpzDw2084zzsdEwc3x6onJ+D+x/Odn0BEJLyEzNKJhh+0YthzYNfO1vHiY7HN1AnjXCnyX8zD0uRhyB03zF1YC6uexXxMwsvPOyE6Pgf3PvAE5j37EAY4PfT5CxcFwjQpHaPuysGwHm3NJmk35CDHuZ9z1wDUeI6zKg9FQ+dg3n9MxL135WLK8y/jsXFJqFjo9Oxf6IjH/vgiptzn7Ou+KXjxSfd5871nIk6D8dOfIK/TFLy8eB6eeOBe53lz8dB/zcNLU4eh6JVf4NnQBkJExFXrwGcPPVpgcwrmk08+aW4z8Dkzx4vbxlwOKngNM/59hnt5GBPuGItJb3RyAu/XmJjprlMrOZg0dTSS3HvGTaMwrK/T9y/eY84kasdpRO7zngckYeTwkeZW1n33IyfZ3Aywz7tjjxP7ro1/xV+d/M+9/yFkhdSxssaNxmjnCNdu1FiGiIRX68Dv2rWrCe1odXjOyLHz7zkd0zYQdpuYZ/d8lI+8eXnuZRH2dJ+IeW/Ow5SRQRF96Qb3RvpFu0pCEjvzq0trH/hh9p/UMnCmcH2fAeb6Avd5PUo3bsY65zzjwriB53JrYMxgXUntmyURuTrVOvBZsqFnnnnGXEfCXjwDn5+4tT16u43dR43um4Nt27Zh25ZNWDzzXiQVzMb3H5qLgkQNVjZuFmYAOIGi7L9ZDJ8hqDhe6fw/C/f+zI4bhLnk1DySICL+VOvAZ+/czqdn7z1WXPdS5u8bjZohffwTmPXgMGD5s5j5G3+UMQKNQjGapdlxgzCXwfHPlhIRf0jIoC3n07PXzh57uIHZUPZTtjR58mRzfSnSvzUdDw0HVr4wE3M/dhcabdCsu3O1K0zdvdBTE6+FWHrkiZaWmYU0VGDthnXuEhGR2CUk8Bn29usRGPj8OoVwNX3W7jlbh2HPbcJ9FUN80jHxxxMxrHwlnn1yrifIr8f1LIkvX4a/BjUEFcifl4fADPraSeuabq6PHr+MEyGHjsSYXkDBK7NDGjgHZyz9Zn4CBpZF5GqVkMAnG/p21g6/TI3BzwtDvnfv3tXfpmnXrV3Yu/o+hCmTBqBi+bOY8Rsb+UkY+cVcpzlYidkTJ+CRl+Zj0YK5eOT+sZjVaBQS8tU3WekY5Vwteu4neHbBIuT9+7MI/ragOtBoGB6amoss5+ea+Y178J1/n4v5f3Oee447Y+kfFdD3yIlIJAkLfLJBzi9K48wc3mf425DnoK392mTeT5QBk6dgYq8KrHxuFvLcLm7S56fjpadzMarNdsx/8hE8/NR8lGY+hpceHQb79Wu1kpaL6c7+h51ehdnTHsaz68J94jfxkkZPx//8cRZy+wPbF83EI1Mexuw/FaHZ8CmYN2ui08iJiIRXJ3/xSkRE6p+E9vBFRKT+UuCLiPiEAl9ExCcU+CIiPqHAFxHxCQW+iIhPKPBFRHxCgS8i4hMKfBERn1Dgi4j4hAJfRMQnFPgiIj6hwBcR8QkFvoiITyjwRUR8QoEvIuITCnwREZ9Q4IuI+IQCX0TEJxT4IiI+ocAXEfEJBb6IiE8o8EVEfEKBLyLiEwp8ERGfUOCLiPiEAl9ExCcU+CIiPqHAFxHxCQW+iIhP1Gngl26cjxn3ZyMjYwLmFroLwzlVinULnsXDD9yDsdkZzvq8DMJtd0/ApKcWoei4u56IiFyyBseOHfvUvZ0YpypQsGw+8l6ei/mrSt2FwzDt9XmYmOneDZE/PQOTXnHvhJMyCtPmvoiJfd37IiIStwT28Asw94GxyO43CPdMmukJ+xilZGH0Vydi2sxZmDVzGiaOG4a0ZPex0qWY+cOZWHnOvS8iInFLYOAXo3hZEQIxn4Ssu0Y7/frYpA2fhcVvv4Y5/+EE/fgc5Ix3gv+/5uHt3025sI8dS7BslXtbRETiltgaftoAjJ4wDXNeX4HXZt+DdHdxTbJG5yC9mXvHq28u7h3n3nYalFPH3JsiIhK3BAb+aEx/+38w52cTMTozXHpfiiQ0q95VGpq1cm+KiEjcEj9oWy0fMzImIc/cjj5oG1H5Ijw85mEsKndud5+IF5dMw6hGgYeiWpeHR/9SiMx/ehzjGr+Ol//+PkqqnOVNk9H/nu/gKze0Bg6txZ8WvIkNe/kA0Lr7cIz76hhkOg95lW58HQvfWI89R06a+41bpiDzi7n42o12gEFE5MpQp9MyL9nxUhTkP4uHv/FYIOyRjtz/+1BsYe9xoiAPT7++AymD78SY7Ewkny3HhvnP4rWNa5H3wkLsaH4jxtw1BsPTW6Nq13LkzVsG83Sukvxn8Mz891HatBeGj74Td44agtSmpSgpCYS/iMiVpN708ItemoCxT65071lJSBt+Nx5+dBpyesVRJnJ7+HCCetwPv4mBttde9Br+83drwD5968HfxP+9u1dgubNk+dz/xJJdyRj+4BSMSeWyHXht5m+xpukQPPjwnTCLjLOoqjiL1knN3fsiIleG+tnDt1JSkNT4KPasK0LpJUzJbN5/xIWwp/Qb0Kclb3Rzeuw27Kk1BvXt5lyXo3R/YEm10ydQed69bTRW2IvIFaneBH7KiG9j1uxZzmU6pkzIRc7IdKSUFqFg2SLMnnYP7nloLgriDP0uXb2hTi3QnFndrgt6hWR28xYt3FtWL9xyUwpwfAPyfpWHJetLcDIo+EVEriz1JvCTMkch564c55KLh342HbNeWowVK17ExMFJ5vHSf8zEY/+vwNyOVeNIP13Dxu6N6FLHPojJd2Uh+Xghli94Dk88Pht5/yg0JSERkStNPS/pjMK0qbnIcu+uW7IE69zbl0djpNzyNUz56aOYPH44MpPKUbg0D0/Pj6/hERGpD+p34NOA63G9exMfV7if5L3cnOC/cQxyf/gghrQHTm5eiw3uIyIiV4r6H/gbN2OzexN9k5Di3qx7VaiqcG9aDZPRro1z3bi50wSIiFxZPvvAX7UI8wtPuXdClK/D7F/lwRZQ0oYOwAD3dt0rxMJfPor/fP6PWPLe+3j/g7fw+otPY8kuIGXw8Ooyk4jIleKzD/yKtXjkzmzcdu8kPDInD4v+tgiLFszFzH+dgNvG/DOeXe52s3vl4icPjgrcvix6IuvGVDQpK8Dy/Nfx+t+WYX1lG/S/azIeHHthVr6IyJXis//gVf4MZEwKrBVJUt978dgzTyCnu7tARETi9tn38G9/CK/NnIKckVnISgtMwTRS0pE18l5Mm7MYK/6isBcRqa067OGLiEh9Uv9n6YiISEIo8EVEfEKBLyLiEwp8ERGfUOCLiPiEAl9ExCcU+CIiPqHAFxHxCQW+iIhPKPBFRHziMwn8teVr3VsiInK5XJbAf33f60Eh//3Vk4Luzy16yb0lIiJ15bIE/kfl6/DzTf/h3gvG8P/fff/r3hMRkbpyWQL/270mmuvQnnzJiRLT0/+3fj91l4iISF25bF+PzHCn1BapJuQHJg8MWiYSWQmW/Oo5LD/s3Gw/HA/+cAz0jonN2pcfxUKMw+P3D3SX1C/1/fiuNnUW+CzVDEgegInpD7hLEiTCX8jKnbMN00e7d+qxnQXfwH17C917YTT/Hl65tQcWvPETLHAXhTM+cyWmhvujMKc2YcHm57H0yAasOXfaWdAUPVqOwvj0H2F8Z/4FdlqKp2Ld/4nV+MOGX+CVin0oa9AFo7v8BD/KGozWgdWMqqKp+PKeHpg1YjL6Jfyc0Q37DgqFaiVLMPu55Uj5p8eRW8Mfea5NoJYsno3nVpS79y7IjOF5Y6XAv7wS9uvJ3jpLNry2pZq5O+bW0YAs/2TiNmzbFrgs/vEw5E3KwIx89+GE459rTMz+mzbuiMwmXS669GgQeLxL60z0cEK6aZh1Mhu3cYO2H3q0Nzcu5gT00sOfOA2HE/IdRmNUE6eROZ6PpzZ+Fy8cdNeJef/7sGDdZDxzoh8mD/gDXuiWicK9k/HLHZVmLeNEPp7ZuRU5mXUR9o6SDShwevaZ/RQI0TCcH/3VEqd5TLRMjHv8cTxuL//kvAf+8ihmL47zmdhIPTobSxJ/gBKHhP2K2oBnz54WfO7P5jpS6HO9n28OHsjleuPf/XLQDJ5YpD8wHdOGAnnL6yzxE6ZL5lP47agFwZcRUzHM/Ev0w9d7ZzvX2Zgcuo5zeaJrH66ELh2/hfG2sx4q6T48ddvf8Ez2DEwdOANPjPobnmjLlXdi46GdgXVi3f/RfCw95vT2e87A6I490K/P95DT3Gn+ytaY9WjN1qexsd2P8K0u7gKpe6ljMMUJ30T1suMyIBfjMoDyLRvqoHGRupawwGdN3tTlT5bUGPp2mmbodE2ux+3XHfbXPP192/+ARedqCPLzK7CgeDWqqhuFCBo6vfdG7m2jDbq06hC46Z5FhBVu/6bYl4kubc09Rw+kOoFf7eAzeL7sBnw3a1RQiUeubgP7ZQKHSxX4V6CE1PBNGccJ6tTmqabXzhDn7V8PnmMeH//el831xF4TTU2fQW9791zHDuCGrheWqeEXYdrr8zDRed8FsOQyCUU/Xox5D6S7ywLyp2dg0ivuHcfFtf7AtkGjAvfNwbYZgZVCtzeqHy/C3PvHYuaqwGIaFuYYojq/CS+88x389kw/TB36YsTAN3XyHSuQ1PEp/GlAlMD3On8a+/a/gl9veR5LMRpPDJuBUS3cx0KE3f+R32Lyh68gMysfk7tywU784d2v4zctf4H8AV3wu+XfwCdd8vFYeqRWKhrPQKyVEVzLNfXdbe4dV6T6caDenIJxj+ciqPizLg+P/qUUwx+cgjF2pNcs846jsGzh3W4t8h5diAtrhH8czrFkbXKPsfrYQ7eNfMxhj82+LggZnDbrInAc3hp+58Dt4Ep7cvU+q2vkd5QGrZec/SCmjI0+9B39NQ0cC7j/snAD6YHXoTT7XmRtmR/87+ywzx/f8dX8nvH+29x+wDsGceE18bOE9PD/2+mZc579/zpB/m/X/zRqT59B//cw8+657aXKn+4E9tBpmB4UtAxjJ6x3TMNit9a/bU7uRbX+opecqHcaATsesO31aRj2yiRMeKnIPD56BpfPgfPWNo2FWccb9r2c8PdsG0fUG1U7f48/nQFaJ92NMRFzcxMW7Fnh9L57ICcthrDfNR3ZbwxD9lsj8ZXNv8GhNpPxwtDIYR9x/+1GIbt5JRZ98gzWHC1D4fbnsehkB+SkjsLOrT/Hnxr9CN+9lLA39Vx3ILa6PjwOmdsWBtWhB97vLH9wuPOrGghNrlfrMkZ1yNrnfdyUKKqZY2NQPeh5vBALH81zoiRY6bLZKOjn7scT9t5tWfOOaECW05SUo2C9t69cglIG2uECbPAsXrvJaUIysoKDl9zyzoPZzqvEGUzmeUOCja/rq8DXPMdUvuI55K1zH4+TOZb2KSbgA7394GOlksXLnEYvEyPH3oAxP3Se0/w7MnQDxxAU5rEcX4zvGYvjDH/E16rXHZdRjuXPXfxv6DcJCfybkgeYgOcHqMKFPhsEK7SMY60rj+fdtxIz78xARkbgMumVYZj2s4nBYZuf5/S8Q5aPno459wF5L8914jog/YF5wT3+zInIddZZuceuEUkRip2efe5wz8bOtsGNTk32YUnJUido2zhBmxO5LLL3r1jkNApomYMvpAQWRdWyP8Z3yMH4pH7IbHgam448g5+seQorT7iPh4q4/x74+qBf4CtYhJ98cBe+v2sfBmW8gMltFuCFvc6JTlYOqrZOxTffdBoXp4H5yntRnsNj7ZtOT+6intlA5DIUDi/HW5cYRLEoOVDqhFUW+nvyZuD9F3qw5tic4PyaJ5AG3u8EixNfy0IGKss7jAxugEpKUeqEWtaNnp0PyI3SSA1EVmg9fF0BCttnIrN9OUr3u8ucmCpwziIufeDaOUPx9sAH3I7h7Z1Q3BR//LHXv3CbE9xfdfdn9uWE6ZvefZVgwxanZx2ugQqr5uOL+z3jrOttVAbewQanEAV1+N66EiQk8O/scqcpw0QKfYZ8YgXP0tn2+kgsYwMw/ULXPX+503O/L9dT9glI7zYMWFVcHfgBgbOBCw2Is2jHnpB1QqUjjQPFkyZgrvf8PR5H8rH0uHPdOAe3mZJJeEv3LXKaBqe96pyDmMZGU8Zj6sBHMHXIi/jt7fl4oVMmyk7+CdM3LHIal4tF3X/LUfju5/KR/4WVyL/9d5jaow3yN/8Slan/hpyjP8cju7eiR4/fYdGAH6Hfaec5PlqAMnfT8KKEV2p/ZF1iEMUq9RqnRXMC4rmXwz2He2wjQ8sTqUhxjqu8NDjwk1OC10JqClKcHns8PclAD/lCPZy95+TrbkdWB8/r4DYkKZ0Dd+N2UfA6Pw+HdcpiqcPz7OZRPOpeAiUe7xlEKvpf55xdbCu48DObmVVOo3BHjA1UjccX/3vmonXNv41zVnag5p/4apaQwGegs+YeGvqX7QNVTs963pxc4JU8N3yLsGeHc/XKpOoQt5exT67kCtVYo8/IGItlIxdXNyA8C6hZOia+zHUvnG3YMlCsCvcsAee7ZHa4Df0Ciy52ahGWHuGNbGSnXUqtvA369b4bo5xbVRWrsTqw8II491+18wm8cPI+fK9vJlYfyMe+Vt/C5N6Z6NBxPCanDUZV1QqsOeWuHI4Jr8+Q0+M25QWWAkyIecLZPTaWA2zABS4hdWNXyjWh72+nx/n4g07v9EJI1lg2MWUd2/NksAXOEExD4IZoyfoC56wj+Kzk8gmZlhlaz3ek3pgV1HtO+PF+1u+Zq0itA98OwHI6pTf0Wa9PfM8+ih5pTr/fSke3Xs4VB1ftWUDQZTpMISZ/RqAc5JwtxDXQ6hGo8TsXp8FZ+eTYoLOM6HZizRFOk2yDQR0jxj2wfzVW8LpVNgY1M0vi17gpmro3LxLP/s+vwG92bMSw3t9Ev4Y7UcJgb9IB7hwgdGjmdLVwCGXRyjpuTyvRTM89Vm7d+/HqcHbnh7vHZscLLroElRMiSQ3UrJ31WVevec564OzB9FBNOccNStMQOEFXEiiPJF/X31mznnJez5EZtpddB8dbR+8ZP6p14LNswxk5DHkb+lwWK7uut67f+VLODHYWw9t3N6WbV1Yi/pn5+VgZOisnFqOnmw+A1VwKch1dihUneWMUBkep06w8lG/KMIOSB1UHazRrdizAznPuHaMSm7b8ybwOrZMGY3BgYbV49r9p0zNY1voH+J45E3CCvolzda6yukxUdord4B5ITQrcD88TcKFq/SErBqR702UGGCNiOLM+b+vlUY7tEqSOnRKYsx56UEHckkhZKZaYco4NSh4LB3Q3oPRwyLhAPVR9RrLuLedsiIO1iTzeunzP+EutA59lG06t9IZ+uEHZcFj7p9D17fKYFc7FBH7dgqdmn/5ALnKRh0n3XxigNZxeffUsHXNWsBLL3rmwhpnx496+wK3XB32wKx8zgnrzRVi6zGlyenW7MEgcRdWhjaacgzY34AazJJxN2FjB6y64oUMPsyTYTixYPhLZb4zHU8WBT79Wlv0S9719F370/hN4au1U/Ogfd+G7B53Qa9AP3+odOjBc0/49yp7H8we64Ls3jHb30QbZKdloXfk8frm9EGWHFuCZ4tXokTIGo6K+q5yQ/apbUgmqo69FHqflZYy7tJk47oyX5a96Zmysy7toWmfJ4rzgT3uyV11dH3eObSSDa+FFvfK1L8dQly9Zgryg7QK154tq/SFMSeRwAQrKvMEeaAjKtxSgNIbySGBs4uLZMpeNW5patqw0wmyiwPhG8IykWNXRe8aHElLDDw39WHVuHhiF4hx8K7awD56lk3HnTKRzyqQ7dz5gNKZvW4xpmImxdj1eXk5Drl3Nrf2bUoz7+Mrh4Wr46Zh4P8cI3DEBG/RBYwTuFM2gY4hsa+VGc53Zsmfk2TnHtmLnWd7ogR7VH36KbnC3ychp4TQFFYuwoGwFNnzqBHO7yXgm+0V8PbQLH/P+d+IPH7+CNt2nYrRnamfr9Mcwq3NPFO78BnLWPY99rX6Ex/rHMG3UlFTcKXXVdXJ3OmNMZZNwLszYeM7uc1NWmGmRpVj+nH1O5xI6D96t8WPFcxfWcS7LUm6/OMTCKA3aLvAz1TTfPTDwWO7EYXCwBxoCZ3mHwBTIqOxsGfOzfRZfYTAQt2c7DZRzvOF72+7j7usT91cz1Ml7xn8S+uVpDG5Ow4wl9FnKsR/M4jb2w1r8quR4SkIiUj+YD2ptydK3mdZjCenhW96efjR83IY9v3LBlnQU9iJXqrV4a0U9H1yWxAY+2dDnbJ1QDHouX3Br4JO3DHpO4eQybqOwF7kyXfhkreK+PqvzP4Biv2eHQgOdga+QF7lyBb5vh99XE/p9Q1IfXba/eCUiIp+thJd0RESkflLgi4j4hAJfRMQnFPgiIj6hwBcR8QkFvoiITyjwRUR8QoEvIuITCnwREZ9Q4IuI+IQCX0TEJxT4IiI+ocAXEfEJBb6IiE8o8EVEfEKBLyLiEwp8ERGfaNikSRM0atQIDRo0cBeJiMjVqMGnDve2iIhcxVTSERHxCQW+iIhPKPBFRHxCgS8i4hMKfBERn1Dgi4j4hAJfRMQnFPgiIj6hwBcR8QkFvoiITyjwRUR8QoEvIuITCnwREZ9Q4IuI+IQCX0TEJxT4IiI+ocAXEfEJBb6IiE8o8EVEfEKBLyLiEwp8ERGfUOCLiPiEAl9ExCcU+CIiPqHAFxHxCQW+iIhPKPBFRHxCgS8i4hMKfBERn1Dgi4j4hAJfRMQnFPgiIj6hwBcR8QkFvoiITyjwRUR8QoEvIuITCnwREZ9Q4IuI+IQCX0TEJxT4IiI+ocAXEfGJOgn8hQsX4sCBA+b2G2+8YS7EZXysqqrK3BcRkcsn4YHPUGeg28A/duyYuZB9zN4XEZHLp8GnDvd2re3YsQMbNmwwod66dWu0atXKhLy9zaDnY9dccw3S09PRq1cvd0sREalrCQt8hv2KFStMuNfElnS+8IUvmPCvyfHjx/HOO+/g0KFDuPnmm9GnTx/3kch4PB9++CHatm2LESNGoGXLlu4jIiL+VOvAtyUa9uzZm8/NzXUfiYzbsJbPsO/fv7/p/UdrKLyB37VrVwwfPhxNmzZ1H73Y6dOnsXz5cuzduxcdO3ZU4IuIOGpdw3/zzTfNoKwt3VgMdfayvRdb17fr8T635T5iwQbiyJEjOHjwoLskPD5eUVFhevciIhJQ68BnD50Xb9gz3NmDZ4nHe7ENg8VtuO2wYcPcJdE1a9bMbFNcXIzz58+7S4NxOR9PSkpC+/bt3aUiItLoMYd7+5IkJyebnveePXtw5swZXHfddSgvLzf3bWPAAVoGNcO+c+fOZhuWgHidnZ0d1FiEw/3u2rULbdq0Mdvs3r0bHTp0CLsde/cff/yxGRDmdidOnED37t3RpEkTdw3g7Nmz2LZtGz744AO8//775jbPCNq1axdUKiooKDANFRuOffv2YeXKlWYb/hxsUOygNJfxsnXrVpw6dcqUkRo1auTu5YL9+/dj9erVWLNmDdauXYtPPvnElKv4vN7j47K33noLhw8fNj8vxyJ4HPxZ+DyVlZWmtBWKDV1+fr55bh6DiIhXrXv4DEHvvHsvNgT2Ei6cWfvnttxHrBh0jRs3NvX5cLi8efPmJvAYkKF4BvDRRx9h06ZNZh2OB7BBYkPBUGWYhtq+fbtpwNiYZWVlmXIVQ5hnMgxvBjYHk1NSUrB582azby8+J5ctW7bMNAjXX3+9aeg6depk9v3uu++GfV5ut379evM8bLxatGhhjpkNQbiprfwZ2Ailpqa6S0RELqh14DNgLpWdrWOvY8FwZbCygWGv3Iv37VkEzwbCYcCyt/65z30Ot9xyC3r27ImbbroJQ4cONQ0Ee/teDGKGLdfv3bs3Bg4ciBtvvNEsZ+izEeAynlFwf126dDHH4A1k9uzZ+2fDwplJ3Ibrs5TFC9dlQxFapuKZEpfdfffdZjC8X79+ppE4evQoysrK3LUCuA8GPs98ePYhIhIqITX8cePGmV58KAZf6ICtF7fhtgzBWDVs2NCE9MmTJ1FSUuIuDWBJg+UalnAaNGjgLr2As3d4BsAGIfR4WbZhWLLR4Hpe3bp1Cyr1sJfNBoUNj7e0Ys8s2Iu3ZxcMbJagOEsoMzPTHL8Xt2ePnL320IaPP0vfvn2DApzr8j4bES+GPUOfDY6ISDi1DnwGOevx3h6t7fVzuR2wLSoqMsu8ZwTchuuwQYgHg5nByp66DWfWvRnmDGGeBYTD5+OlsLAQeXl5QZc//vGP2Llzp2lIGLQWgz30bIElJQY3fxYOJHvxMS+GP88GuI9wU0O5Hx4vjz808Bnsoc/N0hjr+t6yDhsV/juw0eIZgIhIOLUOfM68YWh7w4q9Z/baWaf2XkI/aMVtuC0v8WCopqWlmdCzvXwGHnvnXB7ai7bOnTtnLhkZGaZEE+7CsknoHP9wZwsUabkXP+bA5+Q+QxsDiw1BaENDrNl7B3OJPxt/RoY9e/XE15GvBRvBaJ9PEBF/q3Xg25KMDXIb/LzPOrX3Em4dbst9xItlGc6zZ7mEYclyTk09XAY0LwzNHj16hL0wTCMF86Xic/JMJDTQLZ4FMPRjDWtbp2cjx949P5DGRiXczB0REavWgc8SA4ObtXwGOWfdhJZLQi9chziIaRuBeLH3y9o6w44lIfZwWbuPFpoMVW7HEgtD9nLg8bD0w+dk2SYUA5sDsDyucCWfcLguGzwO6nIAl6Ut9u4jlbJERKjWgW8x1Fi2sQFuGwKLt+3UTF5zXfb6a4MDmBwo5Xx5hiVDMBoGJYOxtLS0ekzBi2cJDNFE4tkCGyY7dsCA9+K4A8tSPPZ4ZtfwTIZnDTzD4aePuX2kUpaICCUsIRjiDHD29Im3Wa7hcl542wY8pyLWNuyJAcmGhCUdBl4sPWROrWRJZOPGjeb7eThNk0HMDzrxw1AsjSQaA58zi9jIcMxjy5Yt5qxk1apV5oNUPB7OzY8Ht2EJiwPNHDi+1DMlEfGPhHcJ7SwcG0C89t5m+Htn6tQW69bstcdav+asF36ZGqdIsjfP0GX489OpnEfPfSUae96cqz9kyBDzPHb2EstQHCTm2U68g608c2Ajx1IRwz/WcpCI+FdCvw9fLi9+mIvlLG8pTUQkEhV9r1Cs33OwlmUdXkREaqLAv0Ix7FkS4vhA6Fx9EZFwVNK5gnBaJwd+Oa+f1+zZ8zuAFPgiEgv18K8w7Nmzds8BW35Dp8JeRGKlHr6IiE+ohy8i4hMKfBERn1Dgi4j4hAJfRMQnFPgiIj6hwBcR8QkFvoiITyjwRUR8QoEvIuITCnwREZ9Q4IuI+IQCX0TEJxT4IiI+ocAXEfEJBb6IiE8o8EVEfEKBLyLiEwp8ERGfUOCLiPiEAl9ExCcU+CIiPqHAFxHxCQW+iIhPKPBFRHxCgS8i4hMNPnW4txPu4MGD2LRpEyorKzF8+HB07NjRfaRmtdnW6/Tp09i6dSv27t2Lo0ePmmVt27ZF165d0adPHzRt2tQsswoKCrB27Vr3Xs14XCNGjEDLli3dJSIi9VPCe/hnz57F7t278dZbbyE/Px/79u1zH6lZbbYN58CBA2Y/69evx6FDh3DmzBlz4W0u42NcpzYaNGjg3hIRqd8S1sM/deoUPvzwQxPS7FV7tWnTJmovvTbbRlJVVYUVK1aYMwVKTU1F9+7dze1du3ahpKTE3O7UqROys7PRunVrc7+4uBj79+83tyMpLS1FWVmZud2/f39ziYY/H89W2NikpaWZS014fDzOJk2aoF+/fmjWrJlZXlFRYc5Yzp07Z+5bPFPhWQt/HjVCIhJOwnr4DCCGLAObIcVQY1jHojbbRsIzBRv23bp1w6233orevXubC29zGXEdrmvxuQcPHhzx0qtXr+qwZbjyfjwOHz5sgj8aPs5GJZrmzZujffv25sISFc+OPvnkE+zZs8ddQ0QkWEJLOuxlXnfddRg9ejRuvvnm6l5pLGqzbThsQKwuXboE1ep5m8ss77o1Ya/7yJEj5jYbB3tmEAv+TCdPnqweS4iEj/OsoFGjRu6SiyUnJyMzM9Nc+vbta84C+HPxzCP0LElEhBIW+By0/PznP296wQyjeMoKtdk2Eu8+wgWnd1msz8feOQd/ib37a6+91tyOVePGjc0ZDHvvkSppXM7H2TjEMxDMdXk5f/58xH2LiL9dtdMyWfNnuBLLNgxCi7ftYC3XiXV8oDa9e+JztWvXzsw8itTL53I+zlJNtB5+KJaB2LNnQ8GGRUQk1FUb+AxkW7ZhjZ7TLRmKvHAA1dbtuQ7XrQkHS+1gbocOHWLaJpyUlBRzRhGpRs/lDHrW5Wuq9Vss/+zcudMEPscm4mkoRMQ/rtrAZ296yJAhZpCWJY6PPvoIr776qrls2LDBrMPHuI49E4iGvXs7M+eaa65BUlKSuR2vVq1amTMDNiDHjx93lwbwPpcz7Fu0aOEuDY+zeFatWmUu69atM2cFrOdzWxGRcK7awCf2fDmjJlyNnss4syU0dMPhOrZ3z8Dm9MdLxeflFFEeF8cEvNi7Z7mpc+fO7pLIvLN0WCbidjyL8c44EhHxumoDn3X7pUuXmqmKxBlAX/rSl8wlKyvL9OpZBnn33Xerp29Gwnq/DWfW+1nSqQ1OOeUAq3eKJhsn3mfvn41KTbyzdPizDRgwwCxjz9+eiYiIeF2Vgc+eOz+cxAFQ9oRvueUWMwPI9ogHDhxoLiybcJ3NmzdHnMpoB3htMLN3X9tBUdbY2XCcOHEC5eXlZhmveQy2xh8v7pPHxuvQMwcREboqA58hboOUAc8SSigO1trZOVw3Ukhyjr59jPuKdUZPTbgvzqjh2QWDnl/3wAaoNjV4nrWwsbAfDBMR8boqA//YsWNm8JPY423Y8OIfk+FoB0ZZo4/Uw/eWc1gyiXcqZiT8kBQbDz43yzC8Zu8+lgHkSHgWwjMSzdIRkXCuysBnyYWlHGJvlyEYiuHIkko03I49b4sBHa7xuFTs5TOcOSDMoOf9S8Wfkx8K4zHXZj8icvW6ogOf5RYOzC5YsABbtmxxlwa+/tj2xNk7t5+O9eJ3zti58ByE5UyXUGwQ7AekONDKHn4iceCW0zs5bZTPH8/XSbAMVVhYaC782Tk1k8vYKCX6OEXk6nBFB/6OHTvMt1symLdv315dt+csF34zJnvN/O6a1atX47333jPr87Jy5UqzjI8RBzvDzatn2Nvv2WE4xzJ7Jl62jMPrePDY2Zjxwk//8syjZ8+e5svcEnkWIiJXjzr7AyisSb/zzjumJBLvVxzHui0/QGU/RMUeMtezvVuWNjgvnZdI9XkGLf8ICr/eOFxIsufMhoEyMjLMh7RERK5UV3RXkL1ZfsUBB1/5qVlvKYMBzm+Q5Ldvcp669zE2Dlz/jjvuwE033RSxR2wHfilRg7UiIp+VOv0ThyIiUn+o2Csi4hMKfBERn1Dgi4j4hAJfRMQnFPgiIj6hwBcR8QkFvoiITyjwRUR8QoEvIuITCnwREZ/4TAK/9GTga4lFROTyuSyBv6tqZ1DIv7N/WdD9giMF7i0REakrlyXwS08ewupDga8ZDsXw31W1y70nIiJ15bIEfla7LHMd2pM/fva46ekP7jjYXSIiInXlsn09MsOdWjZuaUI+pXlK0DKRaM6ePYuPP/7Y/IF6/uWxvn37mr9dLDWzf/6TfxeiPqrvx3c1qbPAZ6mmoxPqtnefKLt37zZ/DSvUiBEjcO2117r3rgzFx4rNWU/V2Urzd22bNGyKgR0HIq1lmrtGQKzrWSXHS8z6FWcqcP7Tc2jYoBE6teiEG9vfiNaNg/+QC9dZV7YOZafKzL5bNm6BG5L7I63VhX1Xna3CmkOrzTrcV8/WPdEvuR8aObetLUe3YHfVLtx6zQi0cPaRSDbs+RfKFAoB/OM8W7duRY8ePWr885i1CdRdu3ahpKTEvXdBenp63H+WMxIF/uWTsJIOe+sMGV7bUs3Hzv3QMk4i8M8ejh07Frm5ueYycOBA0wiwMagL/JOLixcvTuj+1x9ejw8OvW9CvGXjVqZx/NT57/S54D/HGOt6XgdOHsCxs8fQvll7s36DBg2w32kElh94DyfOnnDXAo6ePor3DryLQycPoXWT1mjbNAknzp3AmrI1ptGgs+fP4sPSD5z9HcewlGykt+mFHZU7UFRZZB6no6ePmGV92l6X8LAnvv78G778Y/MSGRuBNWvWBP2ltkRgQztgwAAMHTrUXBj2RUVFpjGIR10dn8QuYYFfevKgCfhlTs+evpj2JXMdKfR5BhA6kMv1/l78d9NYxIN/b7Zbt27Yv3+/u6R+Kz5ejE+cgGzeqDluS/08xnYdi5GdR+Lua+9G99bd3bViXy/U9e2uR861OWZdXm7rPMrs48S5kzh65qi7lvNvc/Rj0wBwX6O7jMYdXb7g9N57OSF/BtsqCp2zg/M4fPqwcxZQieucME9tmWpCvY3TOBw4ccDdC/ezBe2atkO3Vt3cJVLX+Ef3b7755oT1suPB5+SfCWVw8+xLrhwJC/yU5p3cuvyxGkPfTtMMna7J9bh9vIF/JWGI7qgownmnl57lBHNy0wt/a7eB858tk8S6XjhNGjYx61gtGrdEk0ZNzZKGDQL/5DwLO3zqsFm3Z5ueZhnxdtOGTZ2GocLp1VeZ42jkbGPHWfhYM6fxsNgoHTlV7jQyWdX7lqsfz7ZOnz6Nc+fOuUvkStDoMYd7+5IxPFhC6NG6hzm952Xf8X3mfkZSBrZXbMMhN8TZKNjHqbuzTqvGrcw+uB5xHV7COXr0qOnJs17fsmUghE6dOmVOMdnzCO3xfPDBB3j77bexYcMGc2HPpG3btu6jgXLBW2+9hVWrVlWvw/JB165dzePc/r333jPr8RTW+/iZM2fMY7zYbTmQGK3XxR524dFCNHUCmD1xBm44sa5Xk5NOr56N7UHnDIx1/MykTBPMrMfvOrbLhDeXNW4YGADlYwzx0+dP45oW15hle44Vo2PzjqYXz+U7Kouc42qCTk4jv7ZsDa51zhC8Nf9YsXe4efNmfPLJJyguLjaXqqoqdOzY0V0jUN/ds2ePGV8oLy836zRr1swM3Ibivw/fBwwj74BuaWkpCgoKTCmQ29plGzdurH7eAwcOBG3H99T69etNGS/a4yx38Pi2b99efeyh20Y75nDHZl+XgwcPmue0f2Sf6/L14DK+H/l+a9rUaYCd7bj+vn37cP78ebMen5NhzPf7oUOHzPZcl9vweL2PR8PfNz5Xp06dgl5TLuNjXM6fnXV+77GSfR14zedLxPHF8p7x/ttw33zNuB6P0fs6+1FCAp915u0V281t9kajhT6D3V6TDfxtIY1CPIG/bt06c33TTTehUaNAz9eGMd8gX/ziF00Nkm8e1vp5bUN/27ZtJrxvvfVW9O/fH126dDG/gHxjMrj5WO/evc2bdPDgwWY9G/YrVqxAixYtzP7ttnyz8Y0fyaFTh8wgLGvm53EOKw6uxKbyjebnP3XulPm5GbqxrhfJuwfexepDH5rSTMXZSvRO6o2b2t9UHezc/95je80gbQ+nV2/PGM59es4MvrLUw5Bn6Jc4/45sIBj4u4/txv4T+9EnqQ/2Ht/rHMtJDGg/IO7ePcsBmzZtMq8f/93S0tLM6713716UlZVVhwd/kVm+OHz4MHr16oU+ffqEDU6KFk5Hjhwx++IvO/8td+7caWb6sB7N52Yjzufhdjw2vgd4PP369TOPcxmPjcfFdRhGDGSGzTXXXGOOy4Y9fy7ettvagAl33NwXj4c/qw03vrcYTrzm+9RuzyBkKHbu3Nk8D18nbsMQ4zHw+PlzcvCTP5fdH0OPy/k63HDDDeZ3h/tkg8TrSK8nRXpNeSwcG+JyXvM5vMdKfL24LY+Fvxu1Pb5Y3zP234b75Wtj/x0qKytNdth/Qz9KyDl4ihMMLMXwA1Q7q3ZicMebTSDZ8k64ck4oG/ax4D8cB1Hz8vLMhb8c11/v9IKdFt3iMr6JvMv5RsrMzDS9A/4yUVZWlllu8Rc1NTXV/CJHw+1PnDhhfvksbsv9R8PBVs6c4eyYLUe3mnp426ZtnaA9axrNjU6ox7NeJB2adUDnlqlOg9HGlGUY/GsPrzWBTlwG1DxBiyWcm51/T1pashRFFUXmjKNV45Ym8Pu2yzJjAQt3L8SCnQvwxr58VDrHXBP29vjL6J2ZwV9ujscwfNmbrysMlubNm1d3GIiNiQ0rHhsft2d51LNnoOwVOk7E9bxndAxiSk6+UILj4951vGygeevhvM2OC9+3dn+85pTUaJ2JaLgvvjdt0PH4+LwMynjxTIq/g927dzf74774OvB1s/iz8Ofgc9jXNZpYji/e9wwbFB6jxUaHHTkel18lJPDZS+cvfqTQZ8gnEv/RvbN0hg8fjuXLl5vyi8VfTAY3Q9irdevWJqht4BNvL1u2rLoBKSwsvGidUHyDsqfBswv2JOLFGvuQjkPMYCwHSzkVkj0lnhXZsx+Kdb1QnA47vNNwjOk6BqO7jjbTMfdU7QmaXRNdg+pee1unZ/+FLqMxvsd4M2Dcq00vbD6yGaktnIbxTJWzz+3mLC67U7ZpqFaXrTGzeyKJFl4MYYbHpQRRrPgcfH6WIkLZY2ND7u0FMoDZu+b7wovvAS8bbjxztGFdE74O3no4f3YbovZ1sPuKJTzDCQ1e/mx8D/M9bhuaSLgO3+cse/LC9zvPaNljJ+6Lt/m62eNko8qfiSEbi5qO71LeM6Hrcv88A+Cx+VVCAp+BzoAJDX1OI7wcGOos2bBXzzcj3yT8xWRw2xC3l7Vr17pbBbCRePXVV00PzDYgNfXSiW/GkSNHmkbFnm2wDFCTQIg2ML11WyMnzoBhb5o1cvbqY10vFgz7rqbG/mn17BoOwjZq2NgMCofiskYNG5mZPeFwCuYp5/n7tO1jGp6kJm1NiYfHxvJQ1elKM3c/Ev7ysqf1WeG/Nc/s2EtlgHGqoA0qe2wcC7ABx8vq1atN4ITyniUQQ+XGG280jYMNSZZsorHByZ4nn5+9VQY+A8uGKHuv3Gfo810OfK97p2UOGjToooaHx+vtPSf6eD/r98zVotaBz7Dn9EpOp/SGPmfcJLpnHw3fWHyDke19M7htiHsvPDvg+qwRspHgfQbApbjlllvMPkeMGGEaE+9ZRjhtmrRBEydoOfXx7KcX96waOiHPAdpY14tV4wbBNUuOm3DZqbMng84UeJvL2KgkNQkEkRcH53mW0LtNbzMecPr8KXMcdmygRaMWOOc0GRwsjsT2tBItnnBhyHJaI8dl+L7hYCHDyh4ba8w24LyXWD4cxN4pa9Fcnx2Cmuas27MH9lB5DLzPn4XHyNsMfS7nfe9ZR33CY+OZN38GW85J5PHW1XvGb2r9CnI6JnvyDHkb+pEGXMOx63rr+qwPx8ueQlos3XCgL97TN67P7eLFcQB+AKymUlBbpzfcpmmSmdu+u+rCB7n4QSf22tnzZtjHul4oDrby7IofzrLY2w40vg2qzxYY+EnO9tzXJ5WfmGXE21zGD22F+8qLj4987JwxtDJz99lgNHbCnuMCgTEB5/nPnTDLuf9IvAEXiq8/e7jhTt1jwV6g7a1b4Z7HYiCxY8Aw4XbRju1SsIbMWnJoKciLx8Bw5PuGZwM2KHksvPBYWO5hL7o+s2ckLKfyd9E7vlVbdfme8ZNaBz5DgR/u8YZ+rPPoWfun0PXt8lixjMPTZ2/Nnh85pw8//DAogNmr54Vsj5Aj+hZnAYTW5O0Zg3fAjm8y9got+8vK9bh+JOwJX5d0nZkVs6F8Pd7c9wYW712MjeUbnDhugMykPqZ3Het6HCDla/7X3X81Uy/POf9tKt+Ev+35m5mp83bJ23hj7xvOepVIbtYO17YKDFCzZMQPUTGwP6naYfbPC2/z07J92/Y163mxseFzXO9+rQL30blFZ5SfKjcDt3x8p9NgcHZPuMbIYpgxCFlSsR+rJwYua9/sKUYa5IyGQcngZm/a1qX5b8LBey9O0bOlB+JtNhTsRfLYGFTcJrRXvmPHjosak1DcF/dvcX2GYGitPxTDnCHJiw122xBwnwy7ms5gbJmlLge8o+GxEn9/wg3W1ub46uo94zcJmZbJU/quLbu6A4kX1zkj6dKyi+nhc4YOtyWGPZdHwmli/AfmgBsDlxfe5umztyzD0OUbhNPHOH3SrstfbK7HHgN/gXhhndU+zlk9fGMyMPjpXdvLYpCwZMN12JvgdDQ2DnZbzg1mULDEUxOGYcdmHc2nWBnEZ86fMcuGpAw1dXArlvVYUtl9bI/pYXMuPMswXI9fm1BxusL0uDmXPz0pHYM7DDa3rdZNWgftn3X5Ds79ISlDzNiBF3v9aw6tcZ6jq9NoXJj5kNws2UzNLKrcgT3H9zhnBskY1GFQdYknEr7GbJw5pY4NMEOSDSqnF3IarBd/qdmzY0+ZQRIJQ4Fndpwzz/1yn5y/z9k2DHA+H5+XgeOdx81A5bRKG1h8Dt7mcdk54bxwme1F2ql/nIroPSYeK6d82u3sz+SdLRIO32M8Lr7PONBpyxe8ZoByUJLvOSvca8Kfnx0Plin53DxGPm47MKETGLicvw8MSvt8oSJNywzHPj9fa77mof9WtT2+WN8zkf5t7HL+zvN5/SihX57G+i+nYcYS+gz6Ec6ZAdk/iMKzBH5VcjwlIRGpP3hWxAZU32ZaPyV0FMRb3omGj9uw5xx9W9JR2ItcuXjWwV45z4QU9vVTnXw9Mnv6HDjkTB0vBj0H++xXJjPoOcOHyxj0CnuRKxd79wx8frLV1uulfqnzP4DC8OdUPgoNdAa+Ql7kysagZ12e42YK+/qtzgNfRETqh4TW8EVEpP5S4IuI+IQCX0TEJxT4IiI+ocAXEfEJBb6IiE8o8EVEfEKBLyLiEwp8ERGfUOCLiPiEAl9ExCcU+CIiPqHAFxHxCQW+iIhPKPBFRHxCgS8i4hMKfBERn1Dgi4j4hAJfRMQnFPgiIj6hwBcR8QkFvoiITyjwRUR8Afj/JHLrDoQ9UM8AAAAASUVORK5CYII=;" vertex="1" parent="BafFSDpOOTgSXeoZPbgn-11">
          <mxGeometry x="3.2299999999999898" y="30" width="156.77" height="125" as="geometry" />
        </mxCell>
        <mxCell id="BafFSDpOOTgSXeoZPbgn-9" value="Queue" style="text;html=1;align=center;verticalAlign=middle;whiteSpace=wrap;rounded=0;fillColor=#dae8fc;strokeColor=#6c8ebf;" vertex="1" parent="BafFSDpOOTgSXeoZPbgn-11">
          <mxGeometry width="60" height="30" as="geometry" />
        </mxCell>
        <mxCell id="BafFSDpOOTgSXeoZPbgn-13" value="C" style="rounded=1;whiteSpace=wrap;html=1;" vertex="1" parent="1">
          <mxGeometry x="575" y="318" width="120" height="60" as="geometry" />
        </mxCell>
        <mxCell id="BafFSDpOOTgSXeoZPbgn-19" value="" style="group" vertex="1" connectable="0" parent="1">
          <mxGeometry x="560" y="384" width="173.37" height="203" as="geometry" />
        </mxCell>
        <mxCell id="BafFSDpOOTgSXeoZPbgn-12" value="" style="shape=image;verticalLabelPosition=bottom;labelBackgroundColor=default;verticalAlign=top;aspect=fixed;imageAspect=0;image=data:image/png,iVBORw0KGgoAAAANSUhEUgAAASUAAAEhCAYAAAA59rZhAAAAAXNSR0IArs4c6QAAAARnQU1BAACxjwv8YQUAAAAJcEhZcwAADsMAAA7DAcdvqGQAADQiSURBVHhe7Z0LfBXVncd/PAREiGKImoBrBIkaHvIqkGAlugp0FUtLXSsbUBcfCzT9FNndItsasF2LXZF+RPTjg9ViRCtisWgrUbtBGwLKQwEjBoNBMFHDQ8NLEOjO79w5ydybe29e94YJ/L6fz+TOnDkzc2Zyzm/+//85M9PqwIEDf4cQQviE1u6vEEL4AomSEMJXSJSEEL5CoiSE8BUSJSGEr5AoCSF8hURJCOErJEpCCF8hURJC+Iq4j+jeuXMnXnrpJTNxvnv37iZ96NCh+OEPf2h+hRDCEjdRogDNmDEDq1evNstWjPhr0wiX8/LyqtcLIU5t4uK+rVmzBllZWUZ8hg0bhmeffRYFBQVmogB9/PHHZp7rKF7Z2dlmm5OPUuTdmYlB189GQZWbJISISsxFiSLzL//yL2b+pz/9qREh66ItXboUDz30kJm3FhLzcJuf//zn5rdu8jG7Vy/0CpkGXfnPmDp3OUoPu9mEEC2SmLtvtHpoIdE6Co0X0XoitJK8UKwoSrScKFTRoShNRV7/kcjud46bdhhfbihA/qZKJFw6BQ//cRoy2rirmoGqwoWY9dQSnPnPryF3pJsohGgUMbWU6IJZl60hAexx48aZbbhtvd249O8j95e57nQfFrz0f3h5egbw4SP432frY3HFjsoPV2L5ylJ3SQjRFGIqSuxhI3PmzDG/DcFuY/fRcNoj/fZsjHLmCkqLA0lCiBZHzC0l0pieNLtNkwLejsvW3p2twY1B5ea7y17CrSvFwglO2oSFKD22E/lzp+L7mYG4Veao2zH7Lx4rrGQhJjrpo+8vMot5UwP5evWa7eyZuPuqXiae/R8uxpJfTMSVQ5gnE9//jzwUm5hYFTYsmomJVw4y+xt05cTg43qpLELeL27HaLeMjK3d9WQRKo+564VoYcRUlBiophtWF5EC2vXZNio7vwT33P2MzoHlJlGFgnunYkHJObh++oO47+c34KJ9Bcj76W2YU+hmOS8L/zrvQeTemG4Ws/7tQTzoLD8473oEUqKxE3l3TsVyjMCUe3Ix5aok7Fw2GxN+sQRFT/4Etz1biQG3z8KDs6dgYDtHeLzHtex1RDV7IuYVHsbAf73POW4uJg3ugNX3T8SEe/OdMxCi5RHz3rdocLAkBYnBcNsL54Xr6tcDF4Zjlch/Ig8FXTKQPTbDTWwCqx/BEkzFM485DX3cGNxw231Y9MgUDHAsnSXLlgcafEJPZF03BhmpZ5pNuvcdgzHO8pjrBqBOW3F1HkqHLcCiX0/CDddlY9pjz2DW2ARULXMspMe7YtbzT2DaeGdf46fhifvd4+Z7LTpH1H5xN/LOmYZnXluE+267wTluNqb8zyI8OT0DpYt/g0dCRUyIFkBMRYmWTjRRYff//fffb+YpSuxx88Jt6+36Fb+M2b+a7U53YeLVozH19XOcRvkwJqW5eZrEGEydPhIJ7pKhfxYyLnVsqJ07jEXWNByhG++1pxIwYvgIM5c+fgLGdDGzAexxt+1wpMll05/wJ0ejsidMQXqIz5o+diRGOiVcv0mxNdHyiKkodevWzQhLtLgQe9rs+CQOBbAiZrepd6/de/nIW5TnTsux44JJWPTGIkwbESQjjWfwRehZa1cJSKBRtLay6aIUZv8JHQMWV++LB5jfGtzjeqjc9AE2OPZaTRzLM303EMPaUNF06RSiuYmpKNE9I/Pnzze/kaA1RFHiyG5rGdlt7D7qZPwCbN26FVu3bMZrc25AQvE8/GTKQhTHKsDbtn2YoHkMibL/9vUYY1V1cJ/zNx03/NLGscJMY+qObAnhN2IqSrRy7HgjWkH1hXkbM77J0KY9eo67Dw9OzgAKH8Gcp04NlyUgXDvRvruNY4WZBje8F1SIE03MA90cb0Trh5ZPuGB2KHY0N8nJyTG/jaHnrbmYMhwoenwOFn7oJho6o/0Fzs/2MHGgEk+MpgnUx7KJNd3T0tHdcd/Wb9zgpghxchBzUaIg2UdFKEp8tCRcjImxJPbCUZC4TbjHUhpGT0z6+SRk7C3CI/cv9IhNb/RmiKZwJf4UJFZVyF+Uh8AIo6bRvVtP8/v1wWbshB82AqN6AMWL54WIsAN7Ip9aEoNgvBDNT8xFiVhhsr1xfECX4sSJQnTRRRdVv0XA5m2aILlcOgXTpg5AlePGzX7KylICRnwv25GsIsybNBEzn1yC5UsXYuaE0XiwTRZi8qhaek9kOT/LH70bjyxdjrxfPYLgp/viQJsMTJmejXTnvObc/H3c/quFWPKKc+wFbk/kX6ugZ5NFSyQuokSs2PDhW/a4cZkCZYWIgW77ShMux4oBOdMwqUcVih59EHmuqZBwVS6efCgbWZ0/xpL7Z+KuuUtQmTYLT96TAftIb5Pono1cZ/8ZR1Zj3oy78IjjUcU1SO6SMDIXLzz/ILL7AR8vn4OZ0+7CvBdL0X74NCx6cJIjxEK0POL+5kkhhGgIcbOUhBCiMUiUhBC+QqIkhPAVEiUhhK+QKAkhfIVESQjhKyRKQghfIVESQvgKiZIQwldIlIQQvkKiJITwFRIlIYSvkCgJIXyFREkI4SskSkIIXyFREkL4ComSEMJXSJSEEL5CoiSE8BUSJSGEr5AoCSF8hURJCOErJEpCCF8hURJC+AqJkhDCV0iUhBC+QqIkhPAVEiUhhK+QKAkhfIVESQjhK1odOHDg7+58TDm8LR95z76Mle8W44MPd6LKSUvono7e6VkY82/ZuKFvUiCjEEJ4iIMo7UT+r2Zi1qIiVLoptUlC1swn8cSt6e6yEEIEiIMo5WN2r6nI42xSOkZeNRDntOfC1yj9y3IUVSvVAEx76QVM6esuCiGEQ3xEacgCfH3HDNx9awaS2rjJ5HAxHrnt+5i3OrDY/fZF+L//zAgsCCGEQxwC3T1xw8IX8OBtIYJE2qcje9wYd8Fx9IqLHWdPCCFqiIsopfc1/lpYEjqe6c45HHOMJ3dWCCFI3HrfIlG17C4M+o/lgYUbF2Drr0cG5qOxIQ/3/LEEaT+4F2Pbvopn/rIGFfud9HZd0O/7t+NHfTsBu9bjxaVvYONnXAF0umA4xt44CmnOKi+Vm17Fstffx46vvjHLbTsmIe172fjxZV3MshDixNLM45RKsWSpK0gOYwYPc+fqx6HiPDz06jYkDb4WozLT0OXoXmxc8ghe3rQeeY8vw7YOl2HUdaMwvGcn7N9eiLxFK7HX3ZZU5M/H/CVrUNmuB4aPvBbXZg1FcrtKVFQEBEoIceJpRkupCht+9xPctqDIjFlCj0lY9OcZyAiNO4XDtZTgiMnYn92Cgdb6KX0Zv/39OtA26jT4Fvzn9T0C6U5K4cLfYsX2Lhg+eRpGJTNtG16e8zTWtRuKyXddC5NkOIr9VUfRKaGDuyyEOJE0k6VUhYLf3lYjSF0GYNr99RQkDx36XVEjSKRnX1zckTPnO5aPFSTSCYMuPd/53YvKzwMp1Rw5hH3H3XlDWwmSED4i/qJ0uBh5P/1n3P7EBleQ0pH96ycxpb9Z2yBSunmFh5yODtSTs1LQI0RXOpx+ujtn6YEh/ZOAgxuR97s8rHi/At8EiZMQwg/EV5S2L8fMGyZg9l9KA8tJWZix8AXkjkwILDeQtpFK27qtOxOd5NGTkXNdOrocLEHh0kdx373zkPfXEuP+CSH8QfxE6cOFuP2mu7DkQ2MfIemqaVj08hOYFGW4QPxpi6QhP8a0X9yDnHHDkZawFyUFeXhoSbG7XghxoomPKDmCNPHmOSgwj5QkIH3iArz8yBRk+OYZXEecLhuF7J9NxtCzgW8+WI+N7hohxIklDqJUioX3P4Ii0xefgIypT+KZX46sPbq72dmP/QGjrYbWXXBWZ+e3bQdHpoQQfiD2orRyCfIK3dY/bApyfzbAkSY/UIJlD9yD3z72PFb8bQ3WvPMmXn3iIazY7riWg4dD7ysQwh/EfJxS0W+vxMQn3Cfa+o9Edr9zAvNhScKI26cg6zx3MRKeEd3ZA9w0QwVW/O5RFGI4Jv9slGfskUOtbfZi/dLnsfKjCux1x0p2OCsZaZf/CGOHJMlSEsInxFyU8nN7Yepid6FOMjDj1UWYlOYuCiFOeeLX+yaEEI2g2R/IFUKIaMhSEkL4ComSEMJXSJSEEL5CoiSE8BUSJSGEr5AoCSF8hURJCOErJEpCCF8hURJC+AqJkhDCV5xwUVq/d707J4QQJ0CUXi1/NUiIfrJ2atDywtIn3TkhxKlIs4vSe3s34L83/9pdCoYC9efyP7tLQohTkWYXpX/tMcn8hlpEFYcqjMX0X31+4aYIIU5FTsirSyhAJPn0ZCNEA7sMDEoTIir2i8kOtd9GKiKzHnn3LAN8fs2aRZTolg3oMgCTet7mpsSI/NnoNTXPXaghe8FW5I50F3xMWfHNGP9ZoHGFpcOdWPzdW5DqLuJYGfI3z8WLu9Zis/mQZmeknZmDuUPGINFkCE952Vw8vH0F1h7Zh/1oh9SOo3BLn3/HyDPb2Rwo2DQXr+zahI1HmQdIaTcYIy+4G3ekpgSyWKryMXfjA1hxaJ9jZ6dhVM/fYHpIns0bb8JdB8fjpWFj4P2gcUwwglTp+Ry7qHhtHh5dlYSx92ZjoJsWnliJkvsa6j3uouXsMK+lbgRxcd9o9dA94691yxZuWxinIDZfqbsVW7cGptd+noG8qb0wO99dHXPyMbtXbPbfrm1XpJ2WUmtKbRVYn9IprUaQDhVg7ls3YdaXa1HmpGadNQYjO7bD7sO74chDRMpLcnDL1hdRcKQz+jnbjDmjK/YdXI5Z79yO53a7mVCCdZ9vwq52fTEq0dnv6Z1RdWQtnt46DrNKPXs/vgrz1+aiqPU4/GbI7zHTUcIVW6fj9+ZTWi67H8NjX3TFnb3jIEgO6zc7In52OvpJkKKy/pl7cM8zse/ZpgDec8+jKL5kMu69917PNBaxeqt1XETJihAtJLL08pfMbyRhYr7//iA4+M18497+YVDPXH3oeVsuZgwD8grjpkoxIyVtLp7OWho8XTEdGea/0gc3XZRp8sGRnfz378bSo8CglN/jlX98Dvd9ZyZmDX8FyzPH1whXLcqw0hGx/Y5FNabX03jA2ebuzKX4zbncogRPlRUEsiETOVn5eHr4XEwf6Oz38nw8nBKoYvl71plfQ3kBlh9Lw7j0OzHozDRk9bsVo5xjrK0ssxmw9KPFQPfpGMdPV4lmIXn0NEcU6rKSYoBjpT66Co6Vei+mjQ69KwxEdgysJBIXUWKMyMSJvqmoU5jsEIHQoQLMx+037Im92vuZ8o+fcxq+I1hdb61p2JWL8SINlo45uLt3muOAeWgTtFQb45wnIqVzjUr0SQiVsXZod5o765J2RsAl6+StIccOOwKXiuSz3OXWqUjp4M477C+di8eOjUfOxZFlUrRUHNfvjyXokvnjuLvNMRcl47I5YvJfvX9Rb2EKxQa9G0cpdq52nLrze7rLNfBLK70c18tOtV2wgGvmzdMrtyZTYPupYBSLLmLw+lIsnOCmudPEJ0vddfXk+Ga8Uk7LxmslAZsr8rHZ+c1KGoWQCE8dpCKja5rjRpVhxbZ87HbEDgfX4vGdtJASMSY5y+QK5gj278rH3O3Mk4ZbU0PzlGO39eiOl6Gcn6uiu3koH/PLyvGji+9EWqNqFeMdjsvhmea95qkHFSswz0lbttWZ31OIR5nndysQvqYw5hHefTFuTdB2bt5IxyXusavzhBzXuDRMq843DyvcDAF3J/K2XmqXzcHdZ2iZvO5Z4Bh5zhV0YMzNyW+u09Zl7nHddR6Cy1VT3ohsKHZs6zSMqGUhxZ6Yi9L/OoLDcUh/diyfuoSJLttfwoxL4raNJT/XEY1hM5B7m1eUAoIxddsMvObGnrYuyK4Veyp90pGbBTXxqa2vzkDG4qnV4jJyNtMXINuZZzDd5JnNiDr3PxpzeiwI2ra2LEZnf9mzePFbxzpJuB6jqg2bfSg/WO78dkZyu0/w3JpxGPN6BjJfH4HxhfehIPSrvyGkXvoEHk91BO6rXIz5q7NdYQ6ePpSKm3o/hxyvwn31NHLc/Y7ckIt1bcdj1pAncJM3gn7elRjXejOWFi9FyYEyrNv8FFZgMLK6J6Ko+CFsSszBHdE+8xcJ05CWoTLTE6eYPBxY9WiNsCSPwjQnfWwvZ54BVeZpsrvgBmwTxwYdN+jr8izbo4VI+oG7/t7JGA5HFGuJSzGe/wPwY5MnEIRnww8EoD3bRumRGNjHcZn3FGOjd8efV4Ifm967ZaPneOtR7IhOWp8wDtuAbHMsc5162fMKdu1K/ngPnseP3XXMuxeFj9YWLi+BWF5STNyzuoi5KPXvMsCIEAdBhhMmipYl1GWzbNi7wZ2rD0WYc22NdTJ1cQZm/HJSsCDk52HO6pD0kblYMN6xeJ5Z6EhKgJ63LQrutUubhGwnT9GOuiyegHWWPdyzsbNtsDDWRblztyoIxH+6e4PEu7HbESpStC0Hiw+lIDMxE4NaH0HZweWYuTYXBYcC68Oxf/sDmFW2CmWt0jAycQzGndXHud+V4bktM7G0OtDtcFoqBpv1gzHIcQnLDi7GA+vvDs7TPgs5l+Ug7dBDuGXVTZi1pytu7Xsfxu17HPO/znTctotR9P7N+JErbresccTL9BJGwxGGlXQLJgfHKShCP3Aa6daVdd/FG00FKveENG7nuNnV5QiUjY27prcqGaNuHI4ujrX2preaOvtJvzFYJCsqHTnple4RBGfbCVGEdEC687/Zi+L3PfLjiEGXXmnO8SprRMm1WtIb24PmnI/3Wg+82jkfZ4/FDWl2cSTmonRtyrWY1GNSRGGiEMWW4N63ra+OwEqKlNftKnQsoPHZtT562fP8DGD1zmpRChDshpkPa27bEZInlJ7ozuD61IlYGKWHPypf5aPgoPPbdgyu7BZICsbxmTr/Bs9lzcfdA+di/pW/x52M5xzLR/4Or3J4OLwcD5Qsd6rbYEwf+nvMGjgT07/zBB7ulYWUY2sxd8tiRwpdzsjCzWb9fMy/aiVevDATCUdXYe6mx5zta2jX1bGgslZi1TVFWJ41Fzedsx2Pl6xA3x45SP7kLkz/0tF7xwpb3PtH6FzlCOKmte6WEajYiOI9XZB+WZimGqaRxpZkJJ1NyyGC++KWbfjVIRZJcpKxpiq/8G7kpIWcQnJSF+NC1XIHIzIQ6Y6Fs7fS5qdF5Fybq9OdvdeIRsUXlU2yWmpZWGHP58QRc1Gi6HA8UqgwNdugSMdCWeS4Zlic5wpEKXZsc34cN8wKjZ1G31/EDNUEYkajsXLEa9UiR2uqbnpi0jPMW2O1NTSeVLJjBdjPlZZ4JfoEkmowQwRSkHVBVo0F1drx7xMDKlvw9SbzW4vKTVjF384jPe6g4x6mjnKk3OFgEYoOmKRapFw0DiNYO75dhXVfBdLCUfLh/+DFDjnISa3AysoSpCTdiTtSUpGakoNbkjqjbE+RiYdFxHVPTgyO5fIz674E4itBAmLKVrOuZloWJNSGMCJhesUca28v3VBuFyWeZDEu3NZiNz7kWERm+ENArEo2M7UCG7fsRZdL+jValBqDEVivtRZHYipKFCTGidiV7xUmxo9ibyFFIbV7oNEZeuL8Hs7PeE+8J2jKhXG68mcHXD/H6lrUILerhkDMyZkcUSy6f3SQtRadMqfhs1u9MwZ1DZWkVKR1oqKUY18ENy3ltAg9cKa3LBpVOHLUna1FAtrXVTv2LcXTTi299RK6m+XYdcSpvO1qAlWJ7Zxmc3QXdrnLYTkvyXEdYo1jAUUbTRrCwAluzMcKiI1jmbI5ltJkd33IVLtbPAxujMeM4zEB+uixm8AxA1aRcd1c8TFitdsRhWiWZRxJviy92Vy8mIoSXbTkDslGiKwwMa2+2LzeONN5jbGwynbCawMZN21xEeorETXko4juW0MZmWsGcdbt9rl8XYBV7MVCFgaH6V4bdN4oMxZpxY6na2I0x0uwcnfgfp3RpaanLoiu/Zw9OuzLxwpPQHx/2YrA9WnTD2lnOnK3cznW0XX0UP7xU8inYJ2WiUF2CEAQ+5D/wQPYl/xfuMms74rObZ3UozUyuPuIo1gdLowyjsrBuA4RXDQTO2lCA2QjdmcDBALEEXEEZHKmI5F2u2hlazADkT2ZsZtKVHtn4Ujuh3THpaz8YkXAdbPnTrFiEPx9x3o7EYNHk0dhBK21P9YhqjEgpqJEF+3hwQuChKm+gx8ZiyKh+W16vSlZiIl89MQTQ+p5WzaykYepE2qC2gbHOqrufTPWVRFWvlWTw/TkufM1uPGjoMGZ+ZgdZBWVomCl0+x7nF8TWI/C/l2bjOuGzn3R16SEcN4duOOsROw/9Bh+8n83Y9a7ObjD+X3MEbLETv+Omy4IZCv76HbTM3fLegbMHc4Yh1u6cUjAWsx9Zxxmvnsf5q65GTdtLXDsmkSM63kHBjnZjlS9iJzCkbhjVS7mrs/FzJUjccsnq5w8KRh34XiEhOIM+8vuw+PfjMedl9q1fZCZmIqSL/4Hj5eXoax8Pp6u3Iesc0dGFyU2VtdCqTUEoAnjYgI9WYV43rPP9c+Eul3rkRc0bCDgGiHRumID8Y+OSLFseUEWQgVWPFO3K7b+meAGXPF+sSNxtWNPwSSj3yXOMbcUo9IrPkasHIHcUlkv1y0Qz3LdwBgxcMJkDD+7BMvCDSHg/6se7ml9iMuzbxxnxJ42ClN9oatHy8q6gISCxCB5RBr07Jvbbb/aXSTDZuC1Zzw9ciH7434yCt2hBJHy0S2cDcx2xy9VY9JrFSIs694biRynAaed+wSe7lcrohTg+G6s23IfHqtYZZ5769Q6FZnJ05FzyWAkurcWilLOp5uRmPgbPDzQxp+OoOyT+Xj8U++zb1kY1+OnGJfs+jhV+Xh881MoOOiICWtDq0QM6nglxvTO8Twf5+FwAeYWPoB2l7wSPKzgeDny103H444rWu7sIzNpJmZdlunpSYwCK/WjhU6jrSHcw7Ycn7Nsd/2esQp0ydfskftL3+zdPvAsWJBQsRt9Qoh1b563C5Yzb9nMcbak1yqTKWuQZZZWj+fTHNxrgZAeSXs+odelZuiBd9/ec7PHDaTVfvYtkM4hGfVyScNcD1KrB7WRxO2B3IYIE902WliE29BaorXF15g0xP0TQrR8Yuq+efG6ctHgeitIHOVt3TcJkhCnJnF/dQktJg4JYA+cF4rRP6X8U/XrTChGHAnOtAFnB56dE0KcejTrS97sc3EkVHQoShIiIUSzipIQQtRF3GJKQgjRGCRKQghfIVESQvgKiZIQwldIlIQQvkKiJITwFRIlIYSvkCgJIXyFREkI4SskSkIIXyFREkL4ComSEMJXSJSEEL5CoiSE8BUSJSGEr5AoCSF8Ratjx479/ejRo+AkhBAnmlZ/d+DM8ePH4QiU+eXkJgshRLNSLUpCCOEHFFMSQvgKiZIQwldIlIQQvkKiJITwFRIlIYSvkCgJIXyFREkI4SskSkIIXyFREkL4ComSEMJXSJSEEL5CoiSE8BUSJSGEr5AoCSF8hURJCOErJEpCCF8hURJC+AqJkhDCV0iUhBC+QqIkhPAVEiUhhK+QKAkhfIVESQjhKyRKQghfIVESQvgKiZIQwldIlIQQvkKiJITwFRIlIYSvkCgJIXyFREkI4SskSkIIXyFREkL4ComSEMJXSJSEEL5CoiSE8BUSJSGEr5AoCSF8hURJCOErJEpCCF8hURJC+Iq4i9KyZcvwxRdfmPnXX3/dTIRpXLd//36zLIQQJK6iROGh6FhROnDggJmIXWeXhRCCtPq7gzsfU7Zt24aNGzca4enUqRPOOOMMI0R2nmLEdeeeey569uyJHj16uFsKIU5l4iJKFKRVq1YZAaoL675dc801RqDq4uDBg3jrrbewa9cufOc738HFF1/srokMy/Puu+/izDPPxBVXXIGOHTu6a4QQfiOmomTdMVpItIqys7PdNZHhNowtUZD69etnrKhoYuYVpW7dumH48OFo166du7Y2R44cQWFhIT777DN07dpVoiSEz4lpTOmNN94wgWzrplkoPLRWvJONM9l8XOa23Ed9oIh99dVX+PLLL92U8HB9VVWVsZKEEP4npqJES4eTV5AoQLSE6M55JyteFm7DbTMyMtyU6LRv395ss3PnThw/ftxNDYbpXJ+QkICzzz7bTRVC+Jk2sxzc+SbTpUsXY8Hs2LED3377LS655BLs3bvXLFvBYlCbYkJBOu+888w2dPf4m5mZGSRo4eB+t2/fjs6dO5ttPv30UyQmJobdjlbShx9+aILo3O7QoUO44IILcNppp7k5gKNHj2Lr1q145513sGbNGjNPy+qss84KcguLi4uNmFLcysvLUVRUZLbheVD0bCCfaZw++ugjHD582LiMbdq0cfdSw+eff461a9di3bp1WL9+PT755BPjmvK43vIx7c0338SePXvM+TI2xnLwXHicffv2GTc2FIpxfn6+OTbLIERLIaaWEhuqd1ySF4qVncIJCGNR3Jb7qC9sjG3btjXxonAwvUOHDqZRshGHQkvqvffew+bNm00exqcomhQzNnw2+FA+/vhjI7IU3PT0dOOaUihoEVJgKCoMwCclJeGDDz4w+/bCYzJt5cqVRrR69+5txPicc84x+3777bfDHpfbvf/+++Y4FNjTTz/dlJliFW5YBc+BQpmcnOymCNEyiKkosRE0FtsLZ3/rAwWAjZ8iSOvGC5etNUarKhwUAVo9l19+OYYMGYILL7wQ/fv3x7Bhw4yI0WryQrGgIDD/RRddhIEDB+Kyyy4z6RQmChXTaJlxfykpKaYMXtGghUQriuLHHkduw/x0WzkxL8Us1CWlxcm066+/3nQg9OnTxwjZ119/jd27d7u5AnAfFCVakLTihGhJxDymNHbsWGMNhcLGGRrk9sJtuC0ban1p3bq1EZJvvvkGFRUVbmoAui90zeiutWrVyk2tgb1ytKQoWqHlpYvGBk1hYz4v559/fpBbR2uFokdx9LpR1kKjNWStNIoK3U32/qWlpZnye+H2tGxo/YSKM8/l0ksvDRIZ5uUyhc4LBYnCRFEUoqURU1Gi2DA+5LUMrPXEdBvkLi0tNWley4rbMA9FqyFQPNj4afFYAWEchoJDoaA1FQ4ej1NJSQny8vKCpueffx5lZWVG7CgGFopPqNVF95HiwnNh8N0L13mhQNGq4j7CDUvgflhelj9UlCg+ocemG8w4k9eFo/Dx/0BhpSUlREsjpqLEHjUKi7dB0Qqh9cO4iXcKHSzJbbgtp4bAht+9e3fTMK21xEZJK4fpodaI5dixY2bq1auXccfCTXSRQsdAhbO6SKR0LxwSxmNyn6GCZaFYhYohYQzJGwAnPDeeIwWJ1hHhdeS1oFBHG78lhF+JqShZ98uKjRUnLjNu4p3C5eG23EdDoQvGcUh0jdig6brVZSlQRDixYaempoad2OAjiUdj4TFp0YWKjoXWFIWpvoJi40YUYlpJHFRK4QvXIydESyCmokR3guLC2BLFhr1poa5R6MQ8hIFfK1QNhVYEYz1skHT/aCkwlhStYbPhczu6UxSC5oDloZvHY9JFC4WiwqA1yxXOvQsH81KUGQhn0JtuLK2kSG6rEH4npqJkYcOji2ZFxoqVhfN2WAB/mZfWU1Ng0JfBZY4nYoNmQ40GGzMbb2VlZXWMywutLTb0WEKri+JpY1kUIS+Mg9EFZdkb0mtGi5DWFy1FjnLn9pHcViH8TlxqLoWGIkOLiXCerhnTOXHeihC7wZsqSISNmGJH942Nsj6WBrv16f5s2rTJPE/HIQIUCw5W5IBGukGxhqLEHkMKIWNwW7ZsMdbd6tWrzWBIlodjlxoCt6G7yuA8g+2NtTiF8ANxvZ3a3jXbSPjrnadAeXvgmgrjKLR+6htPYW8WH9Bl9zytIgoDBYqjoDnOiPuKNbRgOJZp6NCh5ji2V5IuJwPrtBobGqCmBUYhpltIgaqv6yeEH4nb+5RE88IBmXRdvW6zEC0RBR5OAhhPYoCbLhwnIVoyEqWTAAoS3T/Gq0LHMgnR0pD71kLhkAIGyznuib+0kPjMnkRJtHRkKbVgaCExlsQgN99MIEESJwOylIQQvkKWkhDCV0iUhBC+QqIkhPAVEiUhhK+QKAkhfIVESQjhKyRKQghfIVESQvgKiZIQwldIlIQQvkKiJITwFRIlIYSvkCgJIXyFREkI4SskSkIIXyFREkL4ComSEMJXSJSEEL5CoiSE8BUSJSGEr5AoCSF8hURJCOErJEpCCF8hURJC+AqJkhDCV8T0C7n8vv1bb72FXbt2uSl1M3DgQKSnp7tLDeeTTz7BO++8g2+//RZdu3bFFVdcgY4dO7pra/jqq6/w8ccf48svv8S+fftM/s6dO5ttevXqhXPOOcfNKYQ4kZxwS6l168YX4ZtvvjGiRIGJxNGjR7Fhwwbk5+djy5Yt2LNnT3V+ihO3LygowIcffmjShBAnlphaSocPHzYNP5pIMM9nn32GI0eO4Oyzz8bw4cNx5plnumsbRklJiREce7xwlpLXeqNldO6556Jt27Y4fvw4Pv/8c1RVVZl8Z5xxBjIzM836uuA5bN682Ry3e/fuZqqLiooKbN++Haeddhr69OmD9u3bm3Qe/6OPPsKxY8fMsqVdu3bo1q2bseBatWrlpgpx8hNTUaoPFJEPPvjAzDfFdfv6669RWFhoLB9LJFFiPjbwtLQ0I0gWWlqrV6/Gzp07zTLLwjLVhVeUeKxLL73UiE0kmI+WGMsSSZSYbstNgaIVR+FMSUnBP/zDP5h0IU4FmtV9o4DQSiK0ABrb2NhY2ZC5v/POOy+qpcXGPnToUCM4XkEiHTp0CCrD/v37o1p5oVBYKGwUyGhwPYWsTZs2bkptunTpYkSTE0WOwkVraffu3caqFOJUoVlFie4LA86ELk+nTp3MfEMpKyszsSC6Y2zE0awUrktISHCXauMVqoYajdyW+6+srIy4LdO5ngIWLgAfCeblRAFuZmNWiBNKs4lSrKwk9p7R/aNFc+GFFyIxMdFd0zgYCLfQcoomcKEw71lnnWVcrUjWEtO5nvGzaJZSKDw/WkgUs1ALT4iTmWYTJQqStZKSk5MbZSWxkTKQzobOWAutpKYEgdnwd+zY4S4BSUlJ7lz94TYsA62hcDCdYkQXs76uIV09WoM83/PPP79BYiZES6dZRInBXBtMZuNk0Lmh0I3ZuHEjPv30U7MPxlxo2TQW7o8Cxx44wtgUxbKhsNeOAstzZCDbC5eZzvKefvrpbmp42DvHoDsndgbQuqLoRouXCXEy0iyixAbHgC2hZUGXp6FQQEpLS43LdNFFFzVpsKMVuOLiYmO9MDZFkatLOMJBK4lixh4zb08goZXEY1Hw6oICSxePE68Pt2P5KMJCnErEXZTogpSXl5t5NjwGuBs6YJIBcnapU0B69uyJiy++2F3TcOwwANulT0unf//+9RKOSFDUGJSmKFkXjS4Yl2lF8Rh14e19u+SSSzBgwACT5hV0IU4F4i5Ke/furY4l0QpoaNyGgW1aNYcOHTLB8X79+jV6FDjL8vbbb2Pbtm1mmRYJB0xecMEFZrmxMObDMVIsI49B+EtBtjGnhsJ90s3lb6gFJsTJTNwHT1JQOBEKCqeGwOfaOHK7oTBATMGxvWl0pdasWVMtkBQ4DpRsTMDdDp6kBUSrhlCA6G6xp4zWDstMF8wOrGQvH6095gs3eJLuaKg4hjuOECc7cbWUaDl88cUXZp7uTVPiQE2B1hZdNgoSBYINnILV2HFS4eBAR1pLDG7T5eIvrSQrio2BriCFTb1v4lQirqJkx+gQxl0a05NEl48iEmniE/42ZsNfLjPduk1s2LREWBYKhH2UJB5jf+xYJPbo8VhcbiwMnHMYBUWpKfsRoqURV/eN7sz69evNPF2aIUOGmPlI0OXhwEiOwGZeClld0CKxD9yGe/aNQxFoJTHAHerSNZZobtXWrVtNYJoP9nJwp6Uu941lsuWmEPGRF25DceV+mvI2BSFaEnGr6WxQ3gAte5KiwcbJ9x0dOHDAuD9s3LGArhsFidCdfP/997F27dqwEwXUWnaNxbps/G0ILCOvFye6mRQhilGPHj0kSOKUIm6WEi0Y9nQxwEyLhxZKtIZKUfrb3/5WLWT1fWK/LkupIYFylpOvUuF+hBAnhrjdgikW1kJhELiugYl02Tgoki4RByMyNiSEOPVo9vcpCSFENBSsEEL4ComSEMJXSJSEEL5CoiSE8BUSJSGEr5AoCSF8hURJCOErJEpCCF8hURJC+AqJkhDCV0iUhBC+QqIkhPAVEiUhhK+QKAkhfIVeXSKiwpf08SOghN/ca+gbNU9V7CuT+dUcXbOGEXNR4hdd+SbIUPhGSP6DWgK8JPwAJt9Yye+38SV1fL8334bpfaull0jnbQn3Vkx+YIDv7WbD57u7+crgQYMGVX8Yk6/F5Se8+UpfvvyO7/ZOTU016yz8fBVfITx06NCYvzaX5SorKzMf/+RL+ETgw6h8y6n3PevhiJUo2Xe783/shfWBn++KxwcwTjRxcd/4WtnRo0cjOzvbTHytLRtsvD5BzbdcvvbaazHbPysBvxHH93WnpKSYysfPhvM93hSPcLByJCYm1prsxw9YiShuFh6D14QNn4LFt27ygwF2/3yfOI/H931fffXV5svCfL+4/WQVoVhR2Cga8XiPNz+AwK8aRxJiEYB1g1OsoQCyDvCGMGzYsOqJX09u6scv/EyzxJT4altaGmxAfoeWEb+gy4b43e9+10wUWH61hKL3ySefuDmDoXh973vfC5quueYaIzhs2PwIgL2r8TqwEvMLvaNGjcJVV11lKtt1111nxIdQECi2PC7FjdeQ4mg/4c07KD+0wOuqTzA1H/xgKK3ZaFZSLODNijcdWuehHynlsVkvTkYriSjQHQKtI7pN/HCm/XgmrRCKBYWKlYWCUB+sJcPPLVmXjNYQXSJ+140VzvstPH6nzlo8zEfLylopoe85p0Dym3aM84iTC7p+/P+y/p2KbnNcYkqMg3i/CmK/OEL/mg3RS+jXRkJjT96vlVi835AL97USu56NdtWqVdixY4e7BsaVDC2DF5afx6NlwjiNhccvLCw0Vg+tp7pcGooKXUB+UJJWkLWA7FdbaH5ffvnlET+owHLQXeN1pCXEmAK/DsOYUrdu3cx59+7du1rsGoKNd/D6WPixBntHtt+io3BaIsUwbMyD5xP6DTxagzyG3S5cfMR7XBJ67NDj0qVhHl4DG4C3MS+u4+e5LNHiLqFlI/bYoZ9Qt64Zz88bU2J+WwYLrwPXERtTYh225eLHSuuK0fHGx/9/XXGrk5U2sxzc+ZjAL9HSOuA/wzZcihTp379/9SeoWSHYOFlR6erQT6Y7Q0Hgr7Ug+P03VkAKQb9+/YybxI9cstEzgMh1jMfwHzl48GCTj2lWkNjouX+7LRsk3aFI8AssjNswtsP9U4QIrZvy8nJTSVhh6/LpaSWxAVJQWPHtedM9pAvIcyQsIwWGlZ3nxLLRYmJ+VmQ2YFZgbkMLjhWaDYHXtjFffOF14vWj9cZKT7Hk/tkIaCXyRsJz5DXkBzFZjssuu8yIR7i4FcvMRsp89iZkYbr9P/HXihfrgT0u/0+2gbJsvMHwW3c8Twou98GJ14XHt19d5v+R5af7yvJasWBZKdzclnE51qNw5ea9mPm53jZ8igzdY66zx+NxeGPh+VPkeHyKjLVieB68TqwnPC/WMYocRZV1gMdgXNFea5ad7YP7DyeWhDdR1gEeI1zZT3bicsa88Aw85+XlmYmNi3d1b0NmGhuZN51CRiuHDZCVldCq8VpOrPisIKwI0eD2rJReS4Lbcv/RYAPiNvz+3JtvvomVK1ciPz/fNBYrLPWBFZmCwkrqDXBT7FipWfl5J6VosWGxrOxJs3flTp06GaFmQ/nTn/5khJJWHhsJrxsb7nvvvYelS5fihRdeMFZZpCC8hTcANohQ64SNiw2Z/zceLx6wkbJ83huCbdTElo1ibXur2GhZTt4oKOYWChy38zZqXj+KhhUYruM1itTweWw2eO9++T9hOstqLTV7PZjeGHg+3mvN+sDyx+s6nwzERZRCe9/ogtD1oUVgsY0j9O7KxsgKZkWJcJ7iYEWOAhGaJxQKHa0kWmm8W9UXVlRaXBRLzrOc3BfTaJ1QmHgXiwbFiHdJCg7PMRzcd0ZGhvlI54gRI4y7yX1TzHhuhI2TwXJeQ/5yyADPnXEk5uMdldtxPzweLaBoUAwpDOG+VhyukcYSnhvFmRZnuAZpy8ZG64Uiw3JxvYXLVnws/F9TrGkx1QduTxGz15piT/HjNacg2TLyuCx3Q25IXrwiTMKdjwimWWxDCg/v+rSOKBDWimEDs0JjJ3462wuF7A9/+IOpLFbk6rJ2CIWEjZ2iYK22uhqthduyvD/4wQ9w44034sorrzR3XFZaVn5r2UWCAkEzn42fIuuFFZLb85p4BZmmOvOysnpjLl7otrFS05LjMehi0crixHlad2xckeA63qVPBLx+ffv2NTcs/h9Wr14dJCAsG+uFXWcn3lRCbz7hRILWCMWadYzbbdq0yVhf0aBg8Frz2BQh7pP/M4oVrSZuz3QKdiSLKx6wjlGgrbV2qtFsDiutDOvGsFHywlNcrNB4J1pZzM84BysZl6MFp6NBS4L7ZACdgue11hoCRYCCQXGsq4IyNsKGRNGhCHlhhecUqdKxYYS7K1NwGNNiHInCQoG08S7C+boqsr1LxxJei7pE2guDxQz8WwGx7irLxv3w/2zH43gnrwsUCf5vmJc3FF4LdhREE2ke07pS1nXj+VCs+P9jOvcTzrKMJzzeqeziNZsosUHzH2yhVcCG1lAzlvm5XUNhXIoxmbrcPmJNegvFgHd1WjO0SKLB8tEFYgUPN36IlgLTaTFyvxaKHuNkXB9qXbGCsleIrg2FjqJFgfdaAvWx4tgISTgXjQ2Ax2lsA+Q19ZaHYhDJ4iMUEFqxdrtoZWso3JftBIgmSrzxUczp9vH62XPn9qyrTOd1Zr7mhHWH9YA35WjlP1lpFlFiA6QZ7o0h2ccl3n333SCR4D+CE7GVgQ3WwuBwaIzIWl6M/1goDgwcW3gMWjD1cb9o+r/66qumZ4xBbnbFs+GwR8gKBgXkjTfewCuvvGLushY2bjZG5gsVF8I7MXsLWdkZnGas7K9//aux4Cg2bEyh5bOV045JYqPhdaRQMq7EiQLH61uXKFGcaaF4XSeWmbEe26PUUKwbxDiXxdtZQVh+Dkq1WNeI5eU1sefEsvH/ZGE+bucVvHAwj7cBW3HjfiPB4/J8WQ6v+PCXy0y31lM0WKesGxgrbB1hHWY5vHCZbm5d16SlckKffWOlDR1HxPgIg7+2cYXuj/uh+NCaiZSPbiG7YLnsFTCm2/FN0aBLwfgNKzYrHLvPGfj2WhEUJcYueIdloNkGNDmEgWJDAYn2PBr3zQpnHxvhMThsIdRS4XG4Pw4r8AaBee3onlBceAwej+dcH/eMlTp0HBK3p/XiJdxYnkiwHBQUC/dHsbbb81ihY6PYMxU6tomCFDr2x1s2HoflDy0Ty0rLxsJ6wesRTZSIvRYUZK+LaM8n9LownXXKu2+KkT03e1xixyl5t7d5KcD1cUnDXQ/CG1B9tm+J6C0BQghf0WwxJSGEqA8SJSGEr5AoCSF8hURJCOErJEpCCF8hURJC+AqJkhDCV0iUhBC+QqIkhPAVEiUhhK+QKAkhfIVESQjhKyRKQghfIVESQvgKiZIQwldIlIQQvkKiJITwFRIlIYSvkCgJIXwE8P/BzSRGt4hMigAAAABJRU5ErkJggg==;" vertex="1" parent="BafFSDpOOTgSXeoZPbgn-19">
          <mxGeometry y="32" width="173.37" height="171" as="geometry" />
        </mxCell>
        <mxCell id="BafFSDpOOTgSXeoZPbgn-18" value="Queue" style="text;html=1;align=center;verticalAlign=middle;whiteSpace=wrap;rounded=0;fillColor=#dae8fc;strokeColor=#6c8ebf;" vertex="1" parent="BafFSDpOOTgSXeoZPbgn-19">
          <mxGeometry width="60" height="30" as="geometry" />
        </mxCell>
        <mxCell id="BafFSDpOOTgSXeoZPbgn-20" value="" style="shape=image;verticalLabelPosition=bottom;labelBackgroundColor=default;verticalAlign=top;aspect=fixed;imageAspect=0;image=data:image/png,iVBORw0KGgoAAAANSUhEUgAAAV4AAAEnCAYAAADhBisTAAAAAXNSR0IArs4c6QAAAARnQU1BAACxjwv8YQUAAAAJcEhZcwAADsMAAA7DAcdvqGQAADgkSURBVHhe7Z0LeBXVvfZfLnJRrnIzgBWJCRruF4GEKtFqoEdRW+xROQHx4OVDTJ8i5/uqHGvAnoP4nAJ9pOijlVOLKWqRFotUiHoKeiCgCHIxaGIQCiZKuGi4o9Bv3rVnJbM3e+/sJDvDBt7f80wys2atmTWzZ971X//1n5kGhw8f/geEEEL4RkP3vxBCCJ+Q8AohhM9IeIUQwmckvEII4TMSXiGE8BkJrxBC+IyEVwghfEbCK4QQPiPhFUIIn5HwCiGEz0h4hRDCZyS8QgjhMxJeIYTwGQmvEEL4jIRXCCF8RsIrhBA+I+EVQgifkfAKIYTPSHiFEMJn6vWba7t378af/vQnM3G+a9euJn3IkCH48Y9/bP4LIcT5Rr0IL0X2kUcewdq1a82yFVz+t2mEy3l5eZXrhRDifCDuroZ169YhMzPTCOzQoUPxhz/8AStXrjQTRfazzz4z81xHgc7OzjZlzj1KkPdABgbeMh0rK9wkIYRwiKvwUkj/5V/+xcz/9Kc/NUJr3QmLFy/G008/beatpcs8LPPzn//c/K+efExPSUFKyDTwun/GpFlLUXLczSaEEAlMXF0NtF5p6dLKDfXf0gomtHa9UJApvLSAKcbRofBOQl6/LGT36eimHceejSuRv6Ucra56EL/582SkN3JX+UDF6vmY9rtFaP3Py5Gb5SYKIUQU4mbx0l1g3Qs1GTQbPXq0KcOyMbsc0m5F7i9y3WkG5v3pb3h9Sjqw7Rn89x9isZzjR/m2VVi6qsRdEkKI6omb8DJygcycOdP8rwm2jN1GzWmKtPuyMcKZW1lSGEgSQogEJa4WL6lNhIItU6dBtkaU31Bcn3BuvrvsJdy6Eswf66SNnY+Sk7uRP2sSbs0I+JEzRtyH6W96rOmi+RjnpI98qsAs5k0K5EtJme5smbjbqlwmnu0fL8Six8bhusHMk4Fb/28eCo2PugIbF0zFuOsGmu0NvG5c8H69lBcg77H7MNKtI33dD79QgPKT7nohREISN+Hl4BhdBtURaRAtlrJR2b0H3HLXi1oGlutEBVY+MQnzijrilimzMePnP8EVB1ci76f3YuZqN8slmfjXObORe0eaWcz8P7Mx21mePecWBFKisRt5D0zCUgzHg4/n4sHrO2D3kukY+9giFLzwEO79Qzn63zcNs6c/iAFNHHH17tdywGk4ssdhzurjGPCvM5z95mLCoGZY+9Q4jH0i3zkCIUSiEteohmjwgQmKLgfgbHSDF66LLbIhDCfLkf/bPKxsm47s29LdxDqw9hkswiS89JwjZqNH4Sf3zsCCZx5Ef8diXbRkaUDUWiUj8+ZRSO/W2hTp2nsURjnLo27uj2pt/rV5KBk6Dwv+YwJ+cnM2Jj/3Eqbd1goVSxxL9/n2mPbKbzF5jLOtMZPx26fc/eZ7LXNHuB97FHkdJ+Ol5Qsw496fOPvNxoP/tQAvTElHycIn8UyoUAshEoa4CS8t1mjCydCxp556ysxTeBnJ4IVlY3ZTFL6O6b+c7k4PY9wNIzHprY6O8PwGE1LdPHViFCZNyUIrd8nQLxPpVzm28O5dxrKuG46Yj/Haxa0wfNhwM5c2ZixGtTWzAex+t+9y5Ndly1/wF0eHs8c+iLQQ/0rabVnIcmq4YYt83UIkKnET3i5duhjxjOanZQSDjd9lGJkValsm5miIj/KRtyDPnZZi12UTsODtBZg8PEgqa8+gK5B82qZaoRWN2/XldRfeMNtvdWHAcu7Zo7/5X4W7Xw/lWz7GRsfurvIre6ZrAj7ljWV1bx6EEPVD3ISXrgQyd+5c8z8StGopvHyCzVq4tozdRrWMmYfi4mIUf7IVy2f+BK0K5+ChB+ejMF6DSo2bhhmoiyNRtt80hhjkiiMHnb9p+MkvrF85zDSqek+zEOLMEDfhpbVq43FpzcYK89Ym/tfQqCmSR8/A7InpwOpnMPN350f3OiDOu9G0q/Urh5kG1Ty6RAjhD3EdXGM8Lq1YWrDhBtBCsU+tkZycHPO/NiTfk4sHhwEFz8/E/G1uoqElml7m/NsZxi9b5PGZ1oFYLNR40zU1DV1RgQ2bN7opQoizibgKL0XXPvZL4eVjwuF8vvTtMrqBossy4R4xrhnJmPDzCUg/UIBnnprvEdSe6EmX6epV+EuQIFcgf0EeAhG4daNrl2Tz/5sjPgZwDR2OEd2BwoVzQhoaB0Z4/G5RHAYAhRD1RVyFl1jxtVEOfGkOBZgTxfaKK66ofHuZzVs30XW56kFMntQfFaufwfTfWeltheE/zHZkuQBzJozD1BcWYeni+Zg6diRmN8pEXF6tkJaMTOff0mcfxTOLlyLvl88g+G0U9UCjdDw4JRtpznHNvPtW3PfL+Vj0hrPveW6Ex/9UQO8LEiJxibvwEiuofCEOIxm4TBG2YsvBNfu6SC7Hi/45kzGhewUKnp2NPNfka3V9Ll54OhuZLT/Doqem4uFZi1CeOg0vPJ4O+5qdOtE1G7nO9tNPrMWcRx7GM07vv14H5lxaZeXij6/MRnYf4LOlMzF18sOY81oJmg6bjAWzJziNjRAiUanXL1AIIYQ4nXqxeIUQQkRGwiuEED4j4RVCCJ+R8AohhM9IeIUQwmckvEII4TMSXiGE8BkJrxBC+IyEVwghfEbCK4QQPiPhFUIIn5HwCiGEz0h4hRDCZyS8QgjhMxJeIYTwGQmvEEL4jIRXCCF8RsIrhBA+I+EVQgifkfAKIYTPSHiFEMJnJLxCCOEzEl4hhPAZCa8QQviMhFcIIXxGwiuEED4j4RVCCJ+R8AohhM9IeIUQwmckvEII4TO+CG/5lkWYPjYDKSnjML/ITawBFW88jIEpKU55TtOR76YLIcTZSP0J7/EKFObPx1RHcDN+PBV5a8vdFTXk5EbM//1SVLiLQghxtlMPwluI+feOREavgbh10kwsqq3guux+9QXkfeQuCCHEOUA9CO9u7F5VgoDctkLazVlIN/O14MBSzP51vqxdIcQ5Rf24Grr2R9a4RzBv2Rq8PudWJLvJNaMC+bNmY+kBR76zspDppgohxNlOPQhvFnL/9kfM+8UEZKU2ddNqTsWSaXj01d3OXDomPHQrugaShRDirKfB4cOH/+HO1xP5mJ4yCXlmPh2PLFuACalmITLb5mPc3TNR4Fi7/Sf9EX/8WblnG9mYV5zryHsMbMzD438uQuqPnsBtjZfhpTfXoeyQk96kLfrceh9u790C2LsBry1+G5u/4AqgxWXDcNsdI5DqrPJSvmUZlry1Cbu+PmaWG1/YAak/zMadfduaZSGEiJX6i2qoLScLMf+pZ4zoot+DeDSnfyC9DhwtzMPTy7ajw6CbMCIjFW2/O4DNi57B61s2IO/5JdjerC9G3DwCw5Jb4NDO1chbsArcvaUsfy7mLlqH8ibdMSzrJtyUOQRJTcpRVhYQYSGEqAkJJrwVyH/iYcxcXQG0dazjJyajfyN3VR3Y9fl3GPlQDm6/fgiGjczG5LED4UgsPly0BKW9xuP/3e2I7uBhGHH3gxhxmVPgyw14vyxQFtiO9zeUA22G4J6H7sSI7w/BkOtvwn0PP477MmTtCiFqTkIJb+ELD+HRhSXOXCukT8zFhKsC6XWlWZ9rMcDrOkjujR4XcuZSx4LtbpICtMDAqy51/h9A+ZeBlEpOHMXBU+68oTFatGrmzgshROwkjPBW5E/Hw08VmNCx5DFP4jf31C4WIhydu3jFlTRHM2pmm87oHqKdzZo3d+cs3TG4XwfgyGbk/ToPKzaV4ViQAAshRM1IDOHdNh8PPZYHY+sOewSzH89ybN740TjSUTZs7M5EJ2nkROTcnIa2R4qwevGzmPHEHOT9TxECw3FCCFEzEkJ4818JRDCQitUzceuV9r0MdrIRDSQPk2z62PlGrOufxugw+E5Mfuxx5IwehtRWB1C0Mg9PLyp01wshROwklI838XEEuO8IZP9sIoZcDBz7eAM2u2uEECJWEkJ4u6ZlI3tctCkLVUFlfCrOTR+aHFeXRHgO4VDoM8sN26JNS+d/42aOFAshRM1IzAcoTsO7jdo9QJEdFA5chhW/fharMQwTfzYCSW6q4bQyG5D3+BKUdklD356Xo02TQ9i76UOs23UIHTImImdkUGkhhKgWuRqq5XKk9U3CBfsKsTp/GZa9sQqbDrZEn5tzMFGiK4SoBee2xSuEEAmILF4hhPAZHyxeIYQQXmTxCiGEz0h4hRDCZyS8QgjhMxJeIYTwGQmvEEL4jIRXCCF8RsIrhBA+I+EVQgifkfAKIYTPSHiFEMJnzqjwbjiwwZ0TQojzB1+Fd1npsiCxfWj9pKDl+SUvuHNCCHHu4qvwfnRgI/5z63+4S8FQhP9a+ld3SQghzl18Fd5/7T7B/A+1bMuOlhnL9997PeamCCHEuYvvr4WkyJKk5klGbAe0HRCUJkRU3E8zkdM/6SQiE/iEFRL2nCV6/eJLvQsvXQj92/bHhOR73ZQ4kT8dKZOqPvpuyZ5XjNyz4PMUOwrvxpgvAgISlmYPYOE149HNmS3d/SJ+v/M1rDmyD/uc5c5NBiHrskdxf7fOJmt17CtbiOe3L6ws365RN9ye9jLuviSwHqdKsXLLk1i4dz22nnKWG7RDxsU/xUN9s9CtUSCLoSIfszb/CiuOHnT6SqkYkfwkpoTUYevmu/DwkTH409BRaOGmxQ0juuUYNnEyRqiNNpQtn4Nn13TAbU9kY4CbFp66CJv7jcL97mIlqTHsN1bOL+GNu6uB1itdCfxvXQjzt8+vp4EzfkqoGMXFgWn5z9ORNykF0/Pd1XGHnyCKz/abNG6P1As6nzZ1axBY37lFqhFd7J6B8duew9+OAT1aZSGzSUtUnFiPF4vvx6ydjgBWQ9G2+zB+61wsPXIQLS/MwOg2g5D0jx3Ye9zNgFIsXjsaU/esx46GvTCqnbOPxgexZl8u7i94EUUUYnJqDeauz0VBw9F4cvDvMbUdsKJ4Cn5f7q4n+57Dc1+1xwM960F0HTZsdRqqi9PQR6IblQ0vPY7HX6qHiKGU2/DEE09UTrelFGHJ43OwItBhjZl6q99ZRNyF1wotLV2y+Pt/Mv8jiS/z/efHwQNuzDf6vR8HRTzEQvK9uXhkKJC3ut6UN250Tp2FFzMXB0/XTkG6+UV64a4rMkw+nGyKQV3m4uXr3sCvhkzHjOH5+E1nfrRuHxZ/kW8s2IjsmYtf7d6KfY2yMGPYKiwcNgtTrp6L53+wCjld3Tzf5GPlYed/w0xMHfpbPDrA2ce18zD+AuDQ0eewtDSQDaUrsfRkKkanPYCBrVOR2ecejMAOrC/fYTNg8acLga5TMJqfvhe+kDRysiOC8bI6a8aAsbc5Nu8BFG6qofKK+AsvfbbGb3usrFrxteFloWFmzMfyG/efX61i6WcvO+LmiHL7e6rE69IpmJE2CO08v1Rql+swkDMnDyKyzXsQ+Z8vxFa0xF09piPzQjfZ0ARNrAvBOpoad0Pn5u68Y/mmBuV3OHkchxwbPKmNu9zQyd/MnXc4VDILz50cg5wexk4X5wUDkJYCHCiX8NaUuAqvcS84gvnvPR+LWXxDsQNttaMEu9cC6Zcmu8tV5OemICWlajrdXRBwI3jzpORWZQqUD3zpmO6M4PUlmD/WTXOncS+UuOti5NRWvFG63hE3j7VLwv1CR/bBnKUGlNAIHF+JNRXO/4YjkNElkBSWNpnIoOCeWIqln5fihDO7r2wuFn/jzDS6HZlBLtxS7LNKf2oHSo85/+kaOZqPuTtKcXuPB5BaqyuK/j2n++mZ5iz3XAdlKzDHSVtS7MzvX41nmefXKwLn4DTojwzflTVd3KBybt5I+yXuvivzhOyXPlaTVpmvqutt1kUp6+X0ujm42wytk7erHthHnnMGHegDd/Kb81S8xN2vu85DcL1q7ioIi1vXvI3usofKOsazfu62ouYzdQqkm3NWmff0ffpNXIX3vx1RZZzuXx0LtjrxpXvhzTBxuyxbW/JzHWEc+ghy7/UKb0AUJ21/BMtdX3DxvOzTfMElLziSOq/KX1y87BGkL5xUKaBZ05k+D9nOPAfwTJ7pHMXj9kdiZvd5QWVPl/7oHNrxB7z2LdCi1S0YEa2rfqoIL29/zZFAIKNDFiIOr32zA8YJ0DwJTXfMQM476ch4Kx1Z79yFaYUUeEs33JX+ezzayvl9PhuNTCfPqK0L8eEFozA3fQoG2ivkkuswuuFWLC5cjKLDO/Dh1t9hBQYhs2s7FBQ+jS3tcnB/RzdvTTA30BKUZ0ys8h9OHAasebZKPJNGYLLxKTrzFw/DROb52QjUzdXrDhi18/gtnf12cNcaWLdnV6PDj9z1T0zEMDjCf5qAFuKVV4E7TZ7AwB/FIzDo5Snbzs0ehgG9Up1GpRCbvRv+stzpyDsW5SebPfvbgEJHuFJ7hXEu9M82+zLnqdIfG+yGKPrz43gFd7rrmPcAVj9bWyEK1KVtB+eAk/og7WJn+1tDt7QB76w5gLYZP8CAONXPiKgZZA3k4TTRsVVWPxtO+Fn+cRT2snmd3+HiIiyJ0gj6QVyFt1/b/kZo+SBEOPGlMFtC3QuWjQfCNJkRKcDMm6qszEkL0/HILyYEi15+HmauDUnPysW8MY7l+tJ8RzYDJN+7IDgaInUCsp08Bbuqs1wDVnb2ME9hp2yw+FdHqdMqr3TEsCVGdY0yMHWqFPkfPIy5Rx2Bbv4A7k+JEtVwdC9MzMSxhZhRvNIpMAqjLuqMpo6lmv9FDh4ttBEVB7Hyo0cxt2If2jXLwOh2gXwtvl2KWR85ImsH15pmIqdvDlKPPo3xaxzx3t8e9/SegdEHn8fcbzKQ06MHCjbdjdsd4c54azjGr/OUjYgjfquKnJtyIiaP9MgohfZHjhAVr4qPNRaWMpTvDxEwZ7/ZlfUI1I0CUTXKnoQRdwxDW8fqfsd7mTrbSbsjuCEoK3ckMyXNIypO2bFRGov+aaf5SzmY2DYl1dlfeZVIbCx0ftdUpNV25N85Hu+5HnCDczzOFgtrctsZ2HAtQZHTEN5ptucc3/Awv5mpb1uk9Y145MFUVz/Hil1V3Pa0yBb6uinoRatOF1ReX0G/IesZ2sj5TFyF96bON2FC9wkRxZdiG1+CoxqKlw3HKgqx10Ww2rFkx2RjAsejPCRfmg6s3V0pvAGCXQaTFjpJ23eF5AklGV05oDdpHOZHiQ6Lytf5WHnE+d94FK6L5BY4uh6/L3AEzxHIFk1ux/SB42Pr1p9sh1ED8jF3yFQ8mrEYL6dkGiv5w7Kl+ND5f2j7DMzY79jPF/0bnrtmFqYMYL4XMbV1S+w49Cs8X2xH14Am7cdgWuYqrLmxAEszZ+GujjvxfNEK9O6eg6TPH8aUPU6b1vNlLOx5O1pW/ArTtqx3S0agbDMK90e4KcMIUXxJQgdaaH+O0JV16zbshhDLMqmDsYrLv/IWctJCDiGpQ1vTnT7NdRGRUH8prUnn3NyQ5my9SnjKvip3rP4OkQW8Gk6zlMMeTwQq3QOc3N6Ct+cRofFAyvCYw/+qq1/ZpkIciBDZErbXEE70L+ngpB5A+Zfu8hkgrsJLYWW8bqj4+vZghGNpLpiXDSzMc0WwBLu2O/8WTqoUUzuNfKqAGSoJ+HBHYtXw5ZVCTqu4epIx4SXmrbK+a+rfLdq1wohgarvr0CuQFMyRfMwqyMFzR06gW4t/w2+umYJ0OxAWiUZNA5Zzy9sxytPFbdFthNNcOZzajKKvgS0HaGkDGZ28bouWyOxkcmHNvoKIkRNF2/4LrzXLQU63MqwqL0LnDo4V3rkbunXOwfgOjnDvL8BWN29Y3K70mcGxfH5mu7IBMQkSSVO3qnVVk2PluVkqCSOEJtrAsdoP0GXCcjF0bY1wFBcGutW0FI3ABAQ50IUvw+ZPnG77lX1qLbx1otI94E5jQ0TSNh6VrpEobpFaYnoS5wBxE16KLv22DAPzii/9ufG3dKPQrWtAWAzJuLS782+Mx/8aNOXCOAjypwfcFI71vKBGLoIqAj5gZ3KEv+CpkUFWd3R24MOv6Y1tiYHtw8gu42fX5mLxSWBgp7l4Pn10bJZu2x4YxP/f7sNekxBKKzS5ADhenTvg1EFUhvx6ObgYLzp31z1X0jVSir0nHLFpUiXd7Zo40vDd3gj7djGWR7xxLNkovtRQBox1RcSKpPUrm7qxS+sRGs8U5BqJhOvTfOKJ25BqBgWr8aWafQasW+NmcAXWCPK+cpRF6yEkCMY1YK3OurpFwmB6EucAcRNeuhOSmiUZsbXiy7RYsXm9ft9LamMp79gNry1rXAoLCxCrDFaRjwK6GmpKVq55kKN6F4XLNyuxhtEByMSgMC7b0uLf4WWGmLWejif7DIr9wYSLMpHOzMdew2LPgxaHdqwInJ9mAzHwIqB3ayPPWPPVUpRWivBBrPwqcBa7tewVZgDvIPI//hUOJv077jLhZe3RsrGT+l3VkN2+E86d1+zywEMgkTDdyAjuhJr6BkOhULmzAQLWV0QckZyY4dzUtly0utWYAcieSF9lOaJGXrkDVOVfrQi4GeyxU5ApZpscKzzRHyAxx8DztsH13/8gaPCsriR16hDRP3s2PWATN+GlO+E3g+YFiW+sD0DQN0xC89v0mCmaj3F8jNjj002+NxvZyMOksVUDaQbHyq2MajBWcgFWvVuVw0RIuPNVuP7coAc08jE9yLotwcpVjmh1v7RqMC8Kh/ZuMW4GtOyN3ibFyz4U7At01isOPo2HVo7G+KBpSiDsy2HHp/dh1FvpGL8h4DpwbE6MSn0AA51tLC66GePX5GLa6ptxV/FKxz7tjPHJgceR212Rg5zmTj0Oz8UD7+bgyQ0zMO29mzH1G0esG2Xh/tSAMHs5tGMGnj82Bg9cZR3nvZDRrhuKvvovPF+6AztK5+LF8oPI7JQVXXgpSK6leVr42J95095Zq0eDA76+1XjFs80NL4W6CDYgLyjkLNCNRzvrNhiAHzhCzLoFj5SXYcVL1bsNNrwUbN0a36Qj5aG+4GCS0OdKZ5+fFKLcKyBWzD4pj8nNEPAvuy4L37HHsCqidV6n+jkNZMA9FOybZxTJEg66hQxyJipx9fGGim+sXNIs8NIAbwxvbKIbHNWQctNMJDPUy4R5WbKQW7wcj2AmRtp8nF7qimybzfUNGxeBu75gWDgfbzImjKUP2fUZW8EN8iG7oWVBdYjMpwe3mP+pF14expo9iBOOtUsOndqHom9LQ6a9OBHtTRvtxmPW4OkYfWFL7Ducj3zz2PAoTBv8Mu63ZmzDVNyV/jKmdRyEpJPrsXTfUuQfb4mMNjmYO3Q6MkN9ycdX4rntWzA8NQe9PFdPr16zMK3NCccSvgtjClegacdZmJoaxoQPhd1xGz5m/ahuCFdM3flwuNZrpX/VmRhOZMKYvIQbLPL4La2fliFO3nzlvWK5ufk4bVW52N6n4Oyzb5pj3ToNQJDAumLmpHfoVP2ek0YOdzr4dv/+x6ya/Tt1jWSd17V+dA/Z8LHg83v2vMOjXl6SQwFl+Fgs4ksXA8WasAytXgo3XxFZE1eFECJROL9eeFMb4mrxWryWbzS43ooun2azrgaJrhBnL2XLVzn2bHwH1c416kV4iRVfRjeEQsFl+uJrAk+yUXAZesY0lpHoCnG24nlSzU0Rp+Pbi9DtexxIqLBSeCW2QpzNBNwLHMA87UlEcRq+f4FCCCHOd+rN1SCEECI8El4hhPAZCa8QQviMhFcIIXxGwiuEED4j4RVCCJ+R8AohhM9IeIUQwmckvEII4TMSXiGE8BkJrxBC+IyEVwghfEbCK4QQPiPhFUIIn5HwCiGEz0h4hRDCZxo2btzYnRVCCOEHDf7hcOrUKZw8eRL8z8lJclcLIYSIN0Z43XkhhBA+IB+vEEL4jIRXCCF8RsIrhBA+I+EVQgifkfAKIYTPSHiFEMJnJLxCCOEzEl4hhPAZCa8QQviMhFcIIXxGwiuEED4j4RVCCJ+R8AohhM9IeIUQwmckvEII4TMSXiGE8BkJrxBC+IyEVwghfEbCK4QQPiPhFUIIn5HwCiGEz0h4hRDCZyS8QgjhMxJeIYTwGQmvEEL4jIRXCCF8RsIrhBA+I+EVQgifkfAKIYTPSHiFEMJnJLxCCOEzEl4hhPAZCa8QQviMhFcIIXxGwiuEED4j4RVCCJ+R8AohhM9IeIUQwmckvEII4TMSXiGE8BkJrxBC+Ey9Cu+SJUvw1Vdfmfm33nrLTIRpXHfo0CGzLIQQ5xP1JrwUVwqrFd7Dhw+bidh1dlkIIc4nGvzDwZ2PG9u3b8fmzZuNuLZo0QIXXXSREVs7T8Hluk6dOiE5ORndu3d3SwohxLlP3IWXortmzRojstVhXQ033nijEeHqOHLkCN59913s3bsXV199NXr06OGuiQzr88EHH6B169a49tprceGFF7prhBDizBA34bWuA1q6tG6zs7PdNZFhGfp6Kbp9+vQx1nA0wfYKb5cuXTBs2DA0adLEXXs6J06cwOrVq/HFF1+gffv2El4hREIQNx/v22+/bQbPrEvBQnGl1emdrN/X5uMyy3IbsUCh/vrrr7Fnzx43JTxcX1FRYaxdIYRIFOImvLRYOXlFlyJLi5auB+9kBdrCMiybnp7upkSnadOmpszu3btx6tQpNzUYpnN9q1atcPHFF7upQghx5mk0zcGdrxNt27Y1luiuXbvw7bff4sorr8SBAwfMshVlDqRRMCm6l1xyiSlD1wT/Z2RkBIl2OLjdnTt3omXLlqbM3//+d7Rr1y5sOVq727ZtMwN3LHf06FFcdtlluOCCC9wcwHfffYfi4mK8//77WLdunZmnhdymTZsgF0ZhYaFpMCjgpaWlKCgoMGV4HBR2O3jINE6ffvopjh8/btwbjRo1crdSxZdffon169fjww8/xIYNG/D5558bNwr3660f09555x3s37/fHC991awHj4X7OXjwoHG5hMIGJz8/3+ybdRBCJBZxs3gpRt64XS8UZDuFE0n6hlmW24gVCk7jxo2N/zYcTG/WrJkRHgpVKLSIP/roI2zdutXkob+YDQMFm+JGUQvls88+Mw0JG5W0tDTjRqEY0rKniFI4OejXoUMHfPzxx2bbXrhPpq1atcoIc8+ePU2D07FjR7Pt9957L+x+WW7Tpk1mP2xEmjdvbupMQQ4XksdjYGOQlJTkpgghEom4CS9v9Npioxvs/1igyFHgKPS0Ur1w2VrVtI7DQaGj9fr9738fgwcPxuWXX45+/fph6NChRqhp/XqhIFL0mP+KK67AgAED0LdvX5NO8aUYM40WNrfXuXNnUwevMNLSpTVMgWckB8swP10snJiXgh3qPmHPgWm33HKLGbTs1auXEetvvvkG+/btc3MF4DYovOwJ0BoXQiQecfXx3nbbbcaqDYUCFDqw5oVlWJZiFCsNGzY0Ynns2DGUlZW5qQHY1aYbga6FBg0auKlVMNqBFjGFObS+dCdQtCjezOfl0ksvDXJB0OqksLMB8Hb5raVNq9Za2xROukYYVZGammrq74XlaaHSig1tgHgsV111VZCQMi+XKeZeKLoUXwq/ECIxiZvwUlDpr/VaeNYKZrodWCspKTFpXguZZZiHwlwTKJAUOFquViTpF6WoUgxpFYeD++NUVFSEvLy8oOmVV17Bjh07jKBT8CwU2FDrma4OCiiPhQN+XrjOC0WY1jG3ES6kjdthfVn/UOGlwIbumy4b+n297gaKO38HNh60iIUQiUnchJeRChRPr2jQmqQVSz+mdwp9YIJlWJZTTaC4de3a1YiPtXopPLRWmR5qVVpOnjxpppSUFOM6CDexOx8aIxzOeiaR0r0wXJr75DZDRdlCQQ4VfEKfrnfQjfDYeIwUXVq5hOeR54KNUbT4ZiHEmSVuwmtdBVZQrQBzmX5M7xQuD8tyGzWF7gLG6bIbT9Gim6E6i49CyYni1a1bt7ATRS2SQNYW7pOWeaiwWmgVU3xjFU3rx2VjQ2uXD5ZQ3MNFOgghEoe4CS+7vhRQ+nopqIxSCO3Gh07MQzjYZMW4ptAapO+VokNXBS0++najiRfFjeXY9afY+QHrQ5cE90l3QigUTg6UsV7hXBHhYF42PBx840AbXS60diO5WIQQiUHchNdCcaE7wQqpFWQL521IGf8zL63gusCBJg5oMd6WokUxigYFiwJVXl5e6XP2QquZYhZPaD2zgbC+ZQqtF/ql6S5h3WsSjUDLnlY0LX4+zcfykVwsQojEIO53KMWUQkrLl3CebgSmc+K8FVqGUNVVdAmFioJOVwOFJxaLkSFh7Kpv2bLFvP+B4WUURD6wwIca2GWPNxReRmJQ7OkT/+STT4yVvnbtWvNABOvD2N6awDJ0rXBAkAN8te05CCH8o95MIxu1YIWA/73zFGFvZENdoV+TVmys/k1GCfClOQztonVL8aMI82kvxuFyW/GGlihjfYcMGWL2Y6M96B7hYB6t/5oOitGSZmNDFwZFOFY3hRDizFEv7+MV/sKHMuhm8bp4hBCJi5yBZzn073JQje4GTkKIxEfCe5ZD0aWrgv7j0FhfIURiIlfDWQjD0ThAx7hg/qely3dMSHiFODuQxXuWQkuXvl0OrPGNaBJdIc4eZPEKIYTPyOIVQgifkfAKIYTPSHiFEMJnJLxCCOEzEl4hhPAZCa8QQviMhFcIIXxGwiuEED4j4RVCCJ+R8AohhM9IeIUQwmckvEII4TMSXiGE8BkJrxBC+IyEVwghfEbCK4QQPiPhFUIIn5HwCiGEz0h4hRDCZyS8QgjhMxJeIYTwGQmvEEL4jIRXCCF8RsIrhBA+I+EVQgifafAPB3e+3tizZw+2bt2KgwcPYtiwYWjfvr27pnrqUtbLkSNHUFRUhNLSUrMt0rp1a1x++eVITk5G48aNTVoohYWF2LBhg7sUnksvvRQZGRm44IIL3BQhhIhMvVm83333Hf7+97/jnXfeQX5+vhG8WKlL2XDs2rULb731lhHw/fv349tvvzXT3r178cEHH2DlypWVYhyKD+2SEOI8I+4W7/Hjx42YUSxPnDjhpgZo2bJlVKu1LmUjQYt53bp1+Oabb8zyJZdcgjZt2uDUqVP48ssvUVFRYdK/973vYejQoWjSpIlZtrz//vvGUm7WrBk6d+582npy4YUXIjU1NaLV7GXnzp0oKytD06ZNkZaWZv5Hg+dh27ZtOHr0KJKSknDZZZe5a4BPPvkEX3/9tbsUoGHDhub4eDyssxAi8Yi7xXvy5EkcOnTICAa73l27djWiGQt1KRsOWs6ffvpppej26dMH119/PQYNGoTBgwfjhhtuMG4CQjH84osvzHw4LrroIlOeZUMnCmgsouuFjcyBAwfcpcjQQqfoRsIK7cUXX2wmNgwsQ7E+duyYm0sIkUjUi6uBN/+VV16JrKwsXH311dVadV7qUjYUWoMUIdKpUydcccUVRqgstFTp36VlSNcDhZdibWGaFa8GDRoEla0LjRo1Mg0LXR1sbCLBdczD/JH2zXX0U9Pi5tSvXz9jGVPYWVYIkXjEXXgpZtaqbNu2rRGsWKlL2XBwQM36blu1amW2HwqtRGtVM2+olWg9MRS4utbHCy1ob/3CwXXMU9NzwfysbzRRF0KcOerF4j2boOVpfaF0cXiFl35gK160xGvqToiGFUe6OMK52ZnGdawfoy9qAsWadae4CyESj3NaeCmUVlQ5iEZBCoX+08OHD5t5a2FaKLp2kI+REa+++iry8vKwePFivP322ygpKQlyTdQE1otWOH3adv9emMZ19N+SWKxXii3dCxycpLDTmhdCJB7ntPDSUmzRooWZp6/3888/D7Iu7eCb9QPHCsWaEREFBQV49913jUDWFLoOOnToYOpTXl7uplbBNJsnGvRDb9y4EWvXrjURGGwMKNah/mwhROJwTt+Z7Goz/IrddStQjAtmyBonWq0U3kjQyuzYsaMZ7GMUxIABA4ygebv+tC43bdpUK8uX26F/mYOAHAyz0N3BiAdvwxGJ0KgG+rEZQrd58+ao0RBCiDPHOW8S9ejRw4glxZfQkqTYcmK3vEuXLia2l1AEmzdvbuYJlym2HOxjxADDxhjre9NNN6Fv376V26QvlmJXU6xFS3eGN7SM9aKQV2ftktCoht69e5uGgg3N9u3bNcAmRAJyzgsvLUKKJx/pZVywFVZahwxXo5BaAaWIxTKAxm327NnTPKRAaKGGPsgQK7RqWSc2CBRbCiZdH7RcaxvDTAuYEy1eWb1CJB7nhROQliUflMjMzMTo0aORnZ2Nf/qnfzLWMC1CO6BGsQsXchYOiq/X5VAbPy+h6LMRYB0o3nzYg2LJJ/TYENQWRmHQf8wBNyFEYnHej77Q0rSPDdNKrO0DG3UJNaNLgUJJdwUnRjzUNSKB7gs2OBpgEyLxOK/vSooTX8bD7j0H4ujvjRW6Bfbt2+cuBfzBtYViT9FnOBsbgXbt2hkhri20nDnRheH1WQshEoNzQnjZzecbxhhfyxfHeKG4hos4YDqjHBifSzjAFjqYxXXh3qfA7fFdCPataRRKPpJcF7hvWqfW9RArdJUwTI4v8uG0ZcsWcw64LbpX6uKuEELUD+eE8HL0fvfu3cY3+tlnnwWJJeNtX3/9dRNv+9FHHxlRYszrm2++ieLiYpOHIWO9evU6rVtOC5ThZ3w9JQWN+1m/fj2WL19uQshoKVMoGbLGhyHqAi1uho5FerQ5EvTh0rrlgBwnngMKNwf/6lonIUT9UO8vQuegEUWPIVLsjtfk1Y6xlmXMKifCLjvz8cktQlcCtxEJvuqR0Q3hXAXVvQSd7gCGmHGSL1UIESvnhFp07969MlSMMbtWdAmtPwqjHcAitC6Z/9prrzWRDpH8s8zDmFhuw4acWVfAVVddhZEjR4a1lIUQIhq+fPpHCCFEFTLVhBDCZyS8QgjhMxJeIYTwGQmvEEL4jIRXCCF8RsIrhBA+I+EVQgifkfAKIYTPSHiFEMJnJLxCCOEzEl4hhPAZCa8QQviMhFcIIXxGwiuEED6j10KKOmM/hXT48GHzrmO+q7guH/88n7CfquJ7nxORRK/f2UpchTfS1x74wvHvfe977lJiw0/nfPrpp+Z7a/zUOoWE3y7jy9S9n+Thadu5c6f5zhk/NcSXrIfLF46vvvrKfN2CXzjmdvjNNpbj1zDCwe/D8bNFx44dQ3p6euVL2Qm/0sHPELG+/Ghmamqq+Wy99+Xs/GQR68qy/IJxPLGiyzrp5gzAD5byGurWrdtp3/ELpS7Cxt+0rKzMXaoiOTm52v3GioS3fmg0zcGdrzMUKn736/rrr8fQoUPRp08fY/nwG2f8JE/r1q3dnPGDwsNvolH46rp9fkNt3bp15oLm98p48dKK48XN/0lJSZUfj6TY8LNAFB5+KJMfnaT4heYLhR/IXLNmjflAJ79qzDrz00b8ZhxFnufJYsWddeJ61sn7AUvum9+A4z55vlme9eKXOOxXOPjdOH4vjlao98sc8YLHwYaEjQb3L4Djx4+bL1Dzt7TnhGK8detW8109NpAW/vYk1s9heeH9xn317dvXiDy/mMJtl5SUmOvRey1VR33UT0Sm3n28KSkpRiz40cmzAV54N954I2644Qbz7Tb+pwDv2bOn8iKkhUsrkpbtNddcYyZ+BohWAa1+fvU3El988YWxqvkxSm4/IyMD/fv3NyJKkaX4E+Zhg/K///u/pnEJh23oaOHyg520dGg905K28OOf/FQRGwfhD2wg+R2/eFmdNYH7pOBSSHlNicREg2se2F2mCHotQ36Pjcvs5tsLmVYkv+xLseNE2LWnxUExpvBFuuitZ4cCb+E+Ql0AzMf68AYeNGiQmxoM87BHYV0bzE9r18LGjsJM94O+C3f+wMaX7ilavSIxiburgTc7/blWDNgVYteHLXGoBfD+++/jb3/7W+VXgkPdEdaNQFeFzUMBZBedsLy1CGktetfTcuQ6TrYsRao6K6RBgwbuXABribI7bz/jzuNkGi9wiq2F+6ZLgILIdK8v1sKbgdYz60fRZl66B2hNs3dghZxl2X1kF4/WC/fHc+N1NfC46d5gHtaL26S1TbcLj5N+Yda5NtYuj/vjjz822+MxcaJbwdvlpP+P++cxsBfAPOymhnM5sP68DnjOvANvbKTo72bjY7u4TKN7xO6XrgxvOV5T9GuzdxFtPc8h60er39Y9tGy0Ooermz0v/A25T9ugMS/PB9P4u/B64+/AcsxPFxM/xc983Kd1BdheFPOyDOvrXR8NXofcF68Z7zllGtcxncdOV5m3rsSeB/7n/uJRv1iuGe9vw23znDEf6+g9z+c69S68GzduNP/79etXKRhWFPlD/fCHPzRWJn9EDszxvxXf4uJiI6LsytNfTD8ibwReIBQWruNXhXmx0CpkPiu69KPS+uP2bVn+6LwAawIvNNaD9WKXnhcMBZY3O60K1sNaqzt27DAXMC8eCl444eWxUSQpRDw3vFB5cfIc0DINhxX6UOHl9ikAFD2u475ZX7o8eCGzfrX59Lz19/H88XdjI8LjpJuEvkt7E1vBp1XNLz3z/ETy80YTCfYeuC2eN/6WPI/0SdN1wn3zfHM/LMe68RpgffiFZ65nGuvGejGPbdx4Xjt16mTqZUWXx8V5W9be6OHqzW2xPjxWKzK8tnhu+Z/n3Jbneac4sZHjfqyPl2LCOrD+PE7+Njwuuz2KD9N5Hnr37m3uHW6TDQP/RzqfJNI5ZV1oQDCd/7kPb10JzxfLsi68N+pav1ivGfvbcLs8N/Z3YC+S2mF/w3OduPc/eQKXL1+OvLw8M/EipT/TK0JM44/pTecPSuFha8mLmlA0mG7hDcOBK95Q0WB5+ki9lh7LRhK2SFDI2MoTlrWNCS8obpuCQ4t81apVyM/PNxEOkQbVLLyRaYmyjrzAuV0KN61e3jA1geduwIABZp7750g6B1q4PVoRtKBpZb7++ut49dVXTT2rO3eEx82bwjuSzZuM26MIUujrC97grL8914SibkWDdeN62+shl19+ufkfOo7AfPytLBRE4nUlcb03jxcrLBQVGgmE8/yNee7t9vifPaKaNuoWbovXgRUc1o/7pWDVFDbQvAfZ8HN73BbPA8+bhcfC4+A+7HmNRiz1q+k1Q2FnHS0UfxpUrNf5QNyFlyefA03Z2dlm4gDS6tWrjVvAwhuEAkox9EK/JwXTCi/hPAXDCjnFLTRPKLxQ2PLSomTLWhsoWIwmoNXIVtl7kbDlpoXNhoPzPB7uk2kUDN6YoS4Lwm3RKuCNOmTIEBPeNXjwYBORQNjtovDUBJ7v4cOH44477sDNN99sGioKMC9kbouCzgbsuuuuMzcAGxIrIuGIJiI8Nt7EtRGEWOE+uH92kUOxdWOj57WKeL5pbfK68OL1dxMrMuzBWNGsDp4Hr7+Ux27FzJ4Hu61YRCwcoQLIY+P1xGs82m9FmIfXOd1xnHi9s4dHC5ZwW5znebP15HXBY+I1EgvV1a8210xoXm6f91JNr/+zlbgLbygUV3ajaeXyouCPxRuEAmrF1E4Mz/JCsaalRovECnksVisvCooRxd1a3+yexgL9lez+M0yLFwKFkV3VULgPHtePfvQjI3oUNl6QFDfe8FwfCi0RTrxxvRcel2kBsOvInkBdYBeQNwKtaTYIPP+0CNntpOVou42RYFlaHmcK/tZsKHieKCQffvhhpWDYurFRtELDyYbUheK1mglvbvYIKNJWrNgDiYYVMFpi3D9/X/v7WTGjNcdthu7PD+x1yMab08CBA09rAFhfrzUZ7/qe6WvmbKTehZfwB+YPTXihUJgooFZMvROtZeangFCsucwbsTZQNLlNPsBBUfda3ZGgNUSrlELIcvSpxgp9VxQ1iofXIrNQ1DlFglZVXS5gNmgMc6PA0gqkSPC827rwhmTDR2snEtbyiDc1uckpdjaag/WnlU7RsHVjo2KFxjt5u7mR4Lmgr5L52TBTxNk9j4S1pmmxsQ5c5rGwjpyn+DKdy+F+80SAdWPPiMdg3QzxrG99XTPnMr6cLdu1sdClQP9oTbsVzM9yNYXdb/pCq3NRcPu8Cdk1ohVBSyESod1a+rhYlpal1//ohV023rS0OLyWFpdpifK8eMPMagobDZbnYIUVDK+Y0zLhTRLaBffiFZpQeH4o5uG6lLHAerAOXsLtx0JhYAPNm5rlotWtNtB9xAY29Lf0wjpQpHjd8DezgsW6cGJdeI6jXSuJgLXQ2QvivVibSJdI1Oc1c65S78JL9wK7dV6fLsOkyAcffBAkhLRyORFrIdGKtNASDfXZWgvaO7DCH9sOihF700RyAVgofuzu8yZn9/XNN98MmngcFoY7LVu2zERPcGDrvffeM9YE3RJWPDmQ9fbbb+ONN94wF6W19An9xyxbUFBgfOC8OOkSsKPJNYXniZEW3D+FihNH09lroFXH9bSGmcYGIBIUFQoSu/r2cVHCc0Jhp+UUaTAqGhQs1omNk/Vb8jcJda1wUNB2iQnnKdhsMFg3CgbLhFqpPLZQUQ+F2+L2LcxPMYrWEBGKKsWKkxVYK8jcJkWnOoue9Sehg0x+wboS3j+hPltSl/rV1zVzLhP3cDKeaA6MUPg4cZ7dOq+7gOLHH4qj+BQfm5c3GPOxBeWFzIl+OLueg1m8QHjj2rAqTryh6UpgHgoYrU6KtC1Lny1vWLoeosGLjiJFC4ZWUOjEm85as7zImJ/CxnqzYeH2vZYEb1Te6La+PB4KK58ks9YHzxlvCvoeGRoXblCOeSg0oeFkFjYsjI1k3bzWNvPbOGFrjXPgJbR8KDzHbCQZCsSGkMfAulK0WUcvvLnYqPC4qhN0NkhsHLhdbpN1Y30ppNwf98tz6o0DpbCxMbHCwX1wnvXi9WPzMc1aVfz92NDw+L11Yl0ZqmbL2WPyDpyGg+eL9eJ1xgEp/if8TyFjD4nn1hLunPD4+TvxeuG+WUeut4aENUosTOd1RcGy+wuF1wWNDO6b24+G3T/PNc956G9V1/rFes1E+m1sur1HznX0djIhzhPY+LIh09vjzjzyiAtxHkArnFYqewYS3TOPhFeI8wA7BhLPQTVRe+RqEOIchu4F+m05rsIHgewgmjizSHiFEMJn5GoQQgifkfAKIYTPSHiFEMJnJLxCCOEzEl4hhPAZCa8QQviMhFcIIXxGwiuEED4j4RVCCJ+R8AohhM9IeIUQwleA/w/H/CH3N5jAKgAAAABJRU5ErkJggg==;" vertex="1" parent="1">
          <mxGeometry x="190.53" y="415" width="160.17" height="135" as="geometry" />
        </mxCell>
        <mxCell id="BafFSDpOOTgSXeoZPbgn-22" value="PreOrder" style="text;html=1;align=center;verticalAlign=middle;whiteSpace=wrap;rounded=0;fillColor=#dae8fc;strokeColor=#6c8ebf;" vertex="1" parent="1">
          <mxGeometry x="190.53" y="385" width="60" height="30" as="geometry" />
        </mxCell>
      </root>
    </mxGraphModel>
  </diagram>
</mxfile>
